<?xml version="1.0" standalone="no"?>
<!DOCTYPE svg PUBLIC "-//W3C//DTD SVG 20010904//EN"
 "http://www.w3.org/TR/2001/REC-SVG-20010904/DTD/svg10.dtd">
<svg version="1.0" xmlns="http://www.w3.org/2000/svg"
 width="1108.000000pt" height="1107.000000pt" viewBox="0 0 1108.000000 1107.000000"
 preserveAspectRatio="xMidYMid meet">
<metadata>
Created by potrace 1.15, written by Peter Selinger 2001-2017
</metadata>
<g transform="translate(0.000000,1107.000000) scale(0.100000,-0.100000)"
fill="#000000" stroke="none">
<path d="M4420 10619 c-14 -6 -36 -20 -48 -32 -53 -49 -52 -35 -52 -636 l0
-559 -149 -4 c-163 -3 -178 -8 -225 -72 -19 -25 -21 -45 -26 -254 l-5 -227
-87 -5 c-80 -5 -90 -8 -118 -35 -18 -17 -37 -39 -43 -50 -8 -13 -14 -118 -17
-318 l-5 -297 -195 -3 c-185 -2 -197 -3 -233 -25 -78 -49 -71 97 -77 -1635
l-5 -1549 -815 -1 c-913 -2 -847 3 -900 -75 l-25 -36 -3 -1758 -2 -1758 -198
0 c-185 0 -201 -1 -242 -22 -33 -17 -51 -35 -68 -68 -39 -75 -18 -146 58 -198
l33 -22 4556 0 c4318 0 4558 1 4591 18 19 9 45 33 58 52 20 29 23 45 20 93 -4
46 -10 63 -34 88 -53 57 -66 59 -379 59 l-285 0 0 1713 c0 1021 -4 1735 -10
1769 -10 64 -30 97 -75 125 -28 17 -76 18 -872 21 l-843 3 -2 944 c-3 942 -3
944 -24 972 -12 15 -36 37 -55 48 -33 20 -55 20 -916 23 l-882 2 -3 558 -3
557 -23 33 c-44 62 -65 67 -282 69 l-195 2 -5 298 c-4 262 -7 302 -23 331 -29
53 -70 72 -158 72 -61 0 -78 3 -83 16 -3 9 -6 110 -6 226 0 196 -1 213 -21
245 -36 58 -66 67 -239 73 l-155 5 -5 570 c-6 642 -1 604 -84 645 -46 22 -77
24 -116 9z m320 -1664 l0 -125 -254 0 -253 0 -7 61 c-8 80 -8 174 1 182 3 4
120 7 260 7 l253 0 0 -125z m265 -630 l0 -200 -520 0 -520 0 -3 203 -2 202
522 -2 523 -3 0 -200z m510 -3775 l0 -3265 -267 -3 -266 -2 -4 232 c-3 198 -6
238 -20 265 -54 98 -186 108 -253 19 -18 -25 -20 -46 -25 -269 l-5 -242 -110
-3 c-60 -2 -137 0 -171 3 l-61 6 1 227 c1 198 -1 231 -16 259 -67 121 -241
101 -277 -32 -6 -23 -11 -131 -11 -253 l0 -212 -287 2 -288 3 -3 3268 -2 3267
1032 -2 1033 -3 0 -3265z m1875 -610 l0 -2660 -352 2 -353 3 -5 237 c-5 219
-7 239 -26 264 -53 71 -134 93 -193 52 -75 -51 -75 -53 -81 -316 l-5 -237
-277 -3 -278 -2 0 2660 0 2660 785 0 785 0 0 -2660z m-4245 -995 l0 -1660
-300 0 -300 0 -5 240 c-5 262 -8 271 -68 311 -39 26 -123 25 -158 -2 -68 -50
-69 -52 -74 -312 l-5 -237 -267 -3 -268 -2 0 1665 0 1665 723 -2 722 -3 0
-1660z m6040 0 l0 -1660 -277 -3 -278 -2 0 210 c0 243 -7 287 -56 330 -55 48
-115 51 -181 11 -63 -39 -68 -60 -71 -319 l-4 -232 -306 2 -307 3 -3 402 -2
403 277 0 c260 0 280 1 311 20 100 61 93 214 -12 264 -29 14 -76 16 -305 16
l-271 0 0 170 0 170 271 0 c300 0 319 3 362 64 30 42 31 132 1 173 -44 60 -62
63 -361 63 l-273 0 0 170 0 170 268 0 c258 0 269 1 312 23 57 29 83 75 77 140
-5 55 -29 93 -78 122 -31 18 -55 20 -307 23 l-272 3 2 167 3 167 270 0 c306 0
324 4 363 74 37 66 26 136 -31 190 -35 32 -142 43 -397 39 l-205 -3 -3 148 -3
147 743 -2 743 -3 0 -1660z"/>
<path d="M3852 7521 c-44 -11 -71 -37 -94 -89 -35 -77 1 -166 79 -198 46 -20
150 -18 193 4 104 52 109 216 8 268 -37 19 -137 27 -186 15z"/>
<path d="M4430 7519 c-103 -31 -142 -157 -76 -244 43 -56 168 -74 253 -36 102
47 110 208 13 265 -38 22 -139 30 -190 15z"/>
<path d="M4995 7515 c-132 -47 -133 -235 -2 -284 40 -15 142 -14 180 3 90 38
118 147 62 233 -37 55 -153 79 -240 48z"/>
<path d="M3863 6881 c-51 -13 -83 -39 -104 -84 -23 -53 -23 -81 0 -133 25 -55
83 -84 169 -84 76 0 119 17 155 59 22 27 27 42 27 88 0 67 -25 114 -74 137
-40 19 -130 28 -173 17z"/>
<path d="M4430 6879 c-131 -39 -150 -221 -30 -281 43 -22 156 -24 204 -4 76
32 111 147 64 215 -13 19 -37 43 -54 53 -38 22 -137 31 -184 17z"/>
<path d="M5013 6878 c-139 -31 -159 -217 -31 -284 35 -18 149 -18 191 0 135
57 117 248 -27 285 -51 13 -74 13 -133 -1z"/>
<path d="M3883 6239 c-67 -9 -107 -38 -128 -94 -29 -75 1 -157 70 -189 29 -14
56 -17 122 -14 l84 3 40 42 c36 39 39 46 39 102 0 50 -4 65 -26 90 -46 55
-104 72 -201 60z"/>
<path d="M4458 6240 c-57 -7 -97 -34 -120 -81 -37 -71 -13 -158 54 -199 25
-15 51 -20 108 -20 85 0 131 18 164 63 29 40 29 134 0 174 -38 52 -114 75
-206 63z"/>
<path d="M5035 6240 c-63 -9 -90 -25 -117 -69 -45 -71 -19 -174 52 -212 45
-25 167 -26 216 -3 47 23 76 74 76 134 0 112 -86 169 -227 150z"/>
<path d="M3835 5586 c-44 -19 -82 -68 -90 -116 -9 -54 26 -127 74 -154 45 -26
171 -27 218 -3 52 27 76 78 71 147 -5 67 -29 102 -85 126 -41 18 -148 17 -188
0z"/>
<path d="M4400 5582 c-103 -51 -108 -201 -8 -261 44 -27 96 -34 164 -22 92 17
140 76 132 161 -6 57 -35 102 -82 124 -47 22 -160 21 -206 -2z"/>
<path d="M4985 5586 c-68 -31 -103 -108 -84 -180 22 -82 101 -124 209 -111
103 12 152 62 153 157 1 52 -17 85 -67 122 -35 26 -165 34 -211 12z"/>
<path d="M3835 4946 c-46 -20 -83 -70 -90 -120 -6 -37 -3 -53 16 -87 35 -63
78 -84 169 -83 131 1 184 49 178 161 -3 53 -8 67 -33 93 -16 17 -45 35 -64 40
-50 14 -140 12 -176 -4z"/>
<path d="M4415 4945 c-116 -41 -129 -206 -23 -270 63 -37 197 -27 246 18 80
74 63 205 -31 248 -50 22 -135 24 -192 4z"/>
<path d="M4993 4949 c-66 -19 -112 -110 -92 -183 22 -81 102 -124 209 -112
101 12 154 67 153 158 -1 58 -37 112 -89 134 -37 16 -132 17 -181 3z"/>
<path d="M3852 4310 c-43 -10 -71 -36 -94 -88 -37 -83 8 -179 95 -203 54 -14
160 -6 192 15 64 42 86 147 45 214 -37 60 -137 86 -238 62z"/>
<path d="M4424 4310 c-126 -39 -141 -215 -24 -277 59 -31 149 -32 210 0 103
52 107 187 8 260 -30 23 -143 32 -194 17z"/>
<path d="M5000 4310 c-42 -10 -85 -56 -99 -107 -20 -73 25 -160 96 -184 52
-17 168 -7 201 18 40 30 65 80 65 128 0 116 -116 179 -263 145z"/>
<path d="M3852 3671 c-44 -12 -78 -45 -98 -97 -20 -54 -13 -102 23 -145 36
-43 80 -59 158 -59 112 0 166 44 173 140 5 69 -19 120 -71 147 -36 18 -137 26
-185 14z"/>
<path d="M4432 3670 c-70 -16 -117 -86 -110 -162 9 -94 68 -138 181 -138 115
0 176 46 185 140 11 122 -106 196 -256 160z"/>
<path d="M4995 3665 c-129 -46 -134 -228 -8 -281 18 -8 60 -14 93 -14 101 0
158 37 179 115 36 136 -109 235 -264 180z"/>
<path d="M3863 3031 c-51 -13 -83 -39 -104 -84 -23 -53 -23 -81 0 -133 28 -62
71 -84 166 -84 48 0 89 6 108 15 100 48 105 211 7 268 -31 19 -133 29 -177 18z"/>
<path d="M4427 3026 c-71 -26 -107 -76 -107 -148 0 -52 28 -101 72 -128 50
-30 182 -29 229 3 48 32 71 81 66 140 -7 85 -65 136 -165 143 -35 3 -72 -1
-95 -10z"/>
<path d="M4998 3024 c-97 -30 -133 -145 -74 -236 49 -76 224 -85 294 -17 87
85 47 228 -72 258 -57 14 -90 13 -148 -5z"/>
<path d="M3874 2391 c-55 -9 -99 -43 -118 -91 -20 -52 -20 -75 3 -126 29 -63
78 -89 171 -88 88 0 128 17 159 67 32 52 29 136 -5 177 -15 17 -38 37 -53 44
-35 18 -106 26 -157 17z"/>
<path d="M4455 2391 c-73 -13 -119 -54 -131 -117 -23 -121 72 -207 210 -190
122 16 186 115 142 221 -28 65 -124 103 -221 86z"/>
<path d="M5032 2391 c-80 -14 -136 -74 -136 -148 1 -61 24 -105 71 -135 32
-19 51 -23 114 -22 133 1 188 58 181 186 -2 27 -50 91 -81 107 -26 13 -102 19
-149 12z"/>
<path d="M6268 6239 c-83 -13 -130 -66 -131 -148 -2 -101 58 -151 181 -151
136 0 187 50 183 177 -1 23 -12 45 -37 73 -35 38 -42 41 -129 54 -11 2 -41 0
-67 -5z"/>
<path d="M6842 6241 c-139 -23 -180 -200 -63 -278 28 -19 48 -23 110 -23 90 0
134 18 169 70 20 29 23 44 20 88 -9 109 -101 165 -236 143z"/>
<path d="M6234 5589 c-44 -13 -90 -69 -99 -118 -9 -55 26 -127 75 -156 47 -27
171 -28 215 -1 109 65 102 225 -11 272 -37 16 -132 17 -180 3z"/>
<path d="M6791 5582 c-75 -38 -101 -125 -62 -205 29 -60 72 -80 168 -80 120 1
178 50 178 151 0 68 -29 116 -81 138 -48 20 -161 18 -203 -4z"/>
<path d="M6235 4950 c-101 -31 -133 -187 -53 -255 56 -47 176 -57 248 -20 91
47 95 193 8 258 -31 23 -152 33 -203 17z"/>
<path d="M6790 4938 c-102 -53 -108 -200 -11 -260 48 -31 179 -33 228 -4 103
62 92 226 -19 271 -58 23 -145 20 -198 -7z"/>
<path d="M6236 4310 c-74 -24 -118 -108 -96 -186 26 -92 122 -133 250 -107 49
9 105 70 114 123 9 56 -24 126 -72 154 -38 21 -150 31 -196 16z"/>
<path d="M6820 4311 c-46 -15 -71 -35 -91 -73 -46 -89 -5 -192 85 -218 61 -17
161 -8 195 18 42 31 71 81 71 124 0 52 -33 114 -71 133 -35 19 -152 28 -189
16z"/>
<path d="M6253 3670 c-104 -24 -151 -138 -95 -232 27 -46 80 -68 164 -68 92 0
132 22 166 92 66 133 -65 249 -235 208z"/>
<path d="M6821 3671 c-18 -5 -50 -25 -70 -45 -34 -34 -36 -40 -36 -100 0 -108
55 -156 178 -156 119 0 177 45 185 144 4 56 -18 101 -69 139 -30 22 -133 32
-188 18z"/>
<path d="M6253 3030 c-94 -22 -144 -118 -108 -208 31 -76 112 -109 221 -92 50
8 65 16 97 49 37 40 43 60 38 126 -8 97 -123 155 -248 125z"/>
<path d="M6833 3031 c-138 -35 -169 -209 -51 -281 25 -15 51 -20 108 -20 128
0 185 46 185 150 0 66 -20 102 -73 133 -36 21 -122 30 -169 18z"/>
<path d="M6263 2390 c-82 -17 -126 -71 -126 -154 0 -107 88 -167 221 -150 163
20 201 220 57 291 -31 16 -106 22 -152 13z"/>
<path d="M6842 2391 c-141 -24 -181 -207 -60 -280 44 -27 96 -34 164 -22 92
17 140 76 132 163 -11 106 -103 161 -236 139z"/>
<path d="M2185 4291 c-111 -7 -144 -21 -172 -75 -37 -70 -17 -150 51 -200 26
-20 42 -21 329 -24 280 -2 305 -1 337 16 67 36 100 136 66 200 -27 51 -60 73
-127 82 -68 10 -316 10 -484 1z"/>
<path d="M2140 3651 c-69 -8 -113 -38 -134 -93 -24 -59 -13 -111 33 -160 33
-36 43 -40 111 -50 44 -6 169 -8 305 -6 193 4 237 8 268 23 50 23 79 67 85
126 4 41 0 56 -22 89 -43 65 -52 67 -336 73 -140 2 -280 2 -310 -2z"/>
<path d="M2198 3011 c-117 -6 -117 -6 -153 -41 -77 -75 -63 -197 28 -248 28
-15 65 -17 327 -17 277 0 297 1 329 20 77 45 102 130 60 205 -41 72 -58 77
-279 83 -107 2 -248 2 -312 -2z"/>
<path d="M2070 2348 c-53 -36 -72 -70 -73 -125 -1 -66 26 -112 83 -141 44 -22
50 -23 337 -20 278 3 293 4 320 24 15 11 38 36 51 54 44 66 17 167 -58 209
-36 20 -51 21 -332 21 -289 0 -296 0 -328 -22z"/>
<path d="M8665 4306 c-62 -24 -95 -75 -95 -149 0 -96 80 -154 199 -144 36 2
78 10 92 17 71 33 102 145 57 209 -39 57 -69 73 -145 77 -44 3 -82 -1 -108
-10z"/>
<path d="M8682 3670 c-126 -30 -152 -212 -40 -280 46 -28 156 -28 213 0 72 35
106 130 71 198 -40 77 -133 108 -244 82z"/>
<path d="M8693 3031 c-45 -12 -81 -37 -104 -74 -29 -46 -23 -136 12 -173 40
-43 72 -54 157 -54 66 0 85 4 112 23 95 65 92 202 -7 260 -37 21 -122 30 -170
18z"/>
<path d="M8704 2390 c-147 -23 -183 -193 -61 -284 24 -17 42 -21 107 -20 89 1
131 19 168 75 44 64 14 177 -56 213 -35 17 -106 25 -158 16z"/>
</g>
</svg>
