<svg id="svg" xmlns="http://www.w3.org/2000/svg" xmlns:xlink="http://www.w3.org/1999/xlink" width="400" height="401.81653042688464" viewBox="0, 0, 400,401.81653042688464"><g id="svgg"><path id="path0" d="M72.188 13.119 C 58.130 14.662,54.200 34.541,66.576 41.510 L 67.938 42.277 67.938 202.932 L 67.938 363.587 66.213 363.831 C 53.622 365.609,45.502 372.387,48.652 378.489 C 55.926 392.579,100.620 390.145,100.620 375.658 C 100.620 370.472,89.725 363.716,81.290 363.673 C 80.685 363.670,80.654 355.775,80.655 202.997 L 80.655 42.325 82.244 41.321 C 96.205 32.501,88.650 11.311,72.188 13.119 M127.554 53.436 C 116.537 54.280,104.665 57.322,96.473 61.399 L 93.188 63.034 93.095 137.330 C 93.044 178.193,93.084 211.842,93.184 212.106 C 93.313 212.445,93.818 212.218,94.912 211.327 C 110.701 198.473,136.469 190.364,161.490 190.376 C 197.477 190.394,218.611 201.398,219.747 220.708 L 219.982 224.705 223.252 221.431 C 242.804 201.852,243.690 157.045,225.470 109.278 C 218.642 91.379,209.224 79.199,194.686 69.468 C 178.364 58.543,149.829 51.729,127.554 53.436 M324.432 102.143 C 291.541 110.879,258.283 115.003,242.734 112.274 C 239.823 111.763,239.918 111.236,241.825 117.357 C 252.516 151.667,254.040 184.563,246.015 207.811 C 241.350 221.326,235.317 229.178,222.616 238.269 C 215.906 243.072,216.327 242.321,219.346 244.104 C 235.158 253.443,281.728 258.622,311.172 254.315 C 326.470 252.078,346.029 245.614,351.680 240.928 L 352.589 240.175 320.345 207.929 C 302.611 190.194,288.102 175.542,288.102 175.370 C 288.102 175.005,295.406 161.965,312.257 132.243 C 328.865 102.952,329.975 100.968,329.829 100.849 C 329.758 100.791,327.330 101.374,324.432 102.143 " stroke="none" fill="#546c7c" fill-rule="evenodd"></path><path id="path1" d="M0.000 200.908 L 0.000 401.817 200.000 401.817 L 400.000 401.817 400.000 200.908 L 400.000 0.000 200.000 0.000 L 0.000 0.000 0.000 200.908 M79.908 13.765 C 88.665 17.092,92.454 28.051,87.673 36.224 C 86.698 37.892,82.898 41.596,81.807 41.942 C 80.665 42.304,80.658 43.303,80.656 206.260 L 80.654 363.292 81.471 363.467 C 81.921 363.562,83.270 363.821,84.469 364.042 C 96.145 366.189,103.101 372.541,100.242 378.446 C 94.000 391.341,54.574 391.294,48.460 378.383 C 45.301 371.711,51.776 366.531,67.121 363.456 L 67.938 363.292 67.938 202.934 L 67.938 42.576 66.382 41.664 C 50.312 32.246,62.483 7.144,79.908 13.765 M151.862 54.252 C 185.868 59.407,210.560 75.406,221.660 99.477 C 244.299 148.571,244.601 202.666,222.349 222.797 C 219.417 225.450,219.438 225.456,219.431 221.889 C 219.388 201.517,196.054 189.788,157.686 190.850 C 134.264 191.499,111.534 198.963,95.570 211.247 C 94.390 212.155,93.331 212.897,93.216 212.897 C 93.101 212.897,93.006 179.139,93.006 137.878 L 93.006 62.859 96.185 61.267 C 110.639 54.028,132.342 51.293,151.862 54.252 M330.245 100.611 C 330.245 100.797,326.101 108.277,321.036 117.232 C 292.149 168.310,288.465 174.880,288.465 175.327 C 288.465 175.510,302.934 190.128,320.618 207.811 C 338.302 225.494,352.770 240.133,352.770 240.342 C 352.770 241.097,345.279 245.043,339.434 247.365 C 316.045 256.660,287.896 258.665,252.316 253.571 C 236.458 251.300,226.290 248.495,219.157 244.422 C 215.873 242.547,215.680 242.930,222.368 238.064 C 235.829 228.270,241.636 220.451,246.296 205.850 C 253.601 182.956,251.832 150.742,241.434 117.281 C 239.562 111.259,239.507 111.439,243.053 112.002 C 258.733 114.492,291.521 110.443,322.979 102.132 C 330.813 100.063,330.245 100.182,330.245 100.611 " stroke="none" fill="#fbfbfb" fill-rule="evenodd"></path><path id="path2" d="M63.196 17.348 L 61.944 18.710 63.306 17.458 C 64.055 16.770,64.668 16.157,64.668 16.096 C 64.668 15.818,64.361 16.080,63.196 17.348 M84.287 16.462 C 84.287 16.525,84.818 17.056,85.468 17.643 L 86.649 18.710 85.581 17.530 C 84.587 16.429,84.287 16.182,84.287 16.462 M80.770 44.687 C 80.770 45.985,80.836 46.517,80.917 45.867 C 80.997 45.218,80.997 44.155,80.917 43.506 C 80.836 42.856,80.770 43.388,80.770 44.687 M207.084 79.382 C 208.170 80.481,209.140 81.381,209.239 81.381 C 209.339 81.381,208.533 80.481,207.448 79.382 C 206.362 78.283,205.393 77.384,205.293 77.384 C 205.193 77.384,205.999 78.283,207.084 79.382 M276.930 111.422 C 277.280 111.513,277.852 111.513,278.202 111.422 C 278.551 111.331,278.265 111.256,277.566 111.256 C 276.866 111.256,276.580 111.331,276.930 111.422 M274.024 111.785 C 274.373 111.877,274.946 111.877,275.295 111.785 C 275.645 111.694,275.359 111.619,274.659 111.619 C 273.960 111.619,273.674 111.694,274.024 111.785 M270.940 112.155 C 271.392 112.242,272.046 112.239,272.393 112.148 C 272.740 112.057,272.371 111.986,271.571 111.990 C 270.772 111.994,270.488 112.068,270.940 112.155 M246.235 112.519 C 246.687 112.605,247.341 112.602,247.688 112.511 C 248.036 112.420,247.666 112.349,246.866 112.353 C 246.067 112.357,245.783 112.432,246.235 112.519 M266.399 112.522 C 266.951 112.606,267.769 112.604,268.216 112.517 C 268.663 112.431,268.211 112.363,267.212 112.365 C 266.213 112.368,265.847 112.439,266.399 112.522 M253.315 112.896 C 255.263 112.961,258.451 112.961,260.400 112.896 C 262.348 112.830,260.754 112.777,256.857 112.777 C 252.961 112.777,251.367 112.830,253.315 112.896 M237.323 154.405 C 237.323 155.104,237.398 155.391,237.489 155.041 C 237.581 154.691,237.581 154.119,237.489 153.769 C 237.398 153.420,237.323 153.706,237.323 154.405 M237.686 157.312 C 237.686 158.011,237.761 158.297,237.853 157.947 C 237.944 157.598,237.944 157.025,237.853 156.676 C 237.761 156.326,237.686 156.612,237.686 157.312 M238.064 160.945 C 238.064 161.844,238.135 162.212,238.222 161.762 C 238.308 161.312,238.308 160.577,238.222 160.127 C 238.135 159.678,238.064 160.045,238.064 160.945 M238.445 165.668 C 238.445 166.966,238.511 167.498,238.592 166.848 C 238.672 166.199,238.672 165.136,238.592 164.487 C 238.511 163.837,238.445 164.369,238.445 165.668 M238.821 173.842 C 238.820 175.640,238.881 176.422,238.958 175.579 C 239.034 174.735,239.035 173.264,238.960 172.309 C 238.885 171.354,238.822 172.044,238.821 173.842 M250.808 174.387 C 250.808 176.085,250.871 176.780,250.947 175.931 C 251.024 175.082,251.024 173.692,250.947 172.843 C 250.871 171.994,250.808 172.688,250.808 174.387 M288.102 175.326 C 288.102 175.510,302.693 190.210,320.527 207.993 L 352.952 240.327 320.618 207.826 C 302.834 189.950,288.243 175.250,288.193 175.159 C 288.143 175.067,288.102 175.143,288.102 175.326 M238.441 181.835 C 238.443 183.034,238.511 183.480,238.592 182.827 C 238.673 182.174,238.671 181.193,238.588 180.647 C 238.505 180.102,238.439 180.636,238.441 181.835 M238.057 186.194 C 238.061 186.994,238.136 187.278,238.222 186.826 C 238.309 186.374,238.306 185.720,238.215 185.373 C 238.124 185.025,238.053 185.395,238.057 186.194 M160.672 190.623 C 161.022 190.714,161.594 190.714,161.944 190.623 C 162.293 190.531,162.007 190.457,161.308 190.457 C 160.609 190.457,160.322 190.531,160.672 190.623 M151.589 190.986 C 151.939 191.078,152.511 191.078,152.861 190.986 C 153.211 190.895,152.925 190.820,152.225 190.820 C 151.526 190.820,151.240 190.895,151.589 190.986 M169.941 190.993 C 170.393 191.080,171.047 191.076,171.394 190.985 C 171.741 190.894,171.371 190.823,170.572 190.827 C 169.773 190.831,169.489 190.906,169.941 190.993 M212.352 204.905 C 213.133 205.704,213.853 206.358,213.953 206.358 C 214.053 206.358,213.496 205.704,212.716 204.905 C 211.935 204.105,211.215 203.451,211.115 203.451 C 211.015 203.451,211.572 204.105,212.352 204.905 M232.323 230.064 L 230.154 232.334 232.425 230.166 C 233.674 228.973,234.696 227.951,234.696 227.895 C 234.696 227.627,234.337 227.954,232.323 230.064 M254.042 253.838 C 254.391 253.929,254.964 253.929,255.313 253.838 C 255.663 253.747,255.377 253.672,254.678 253.672 C 253.978 253.672,253.692 253.747,254.042 253.838 M260.041 254.571 C 260.492 254.658,261.146 254.655,261.494 254.564 C 261.841 254.473,261.471 254.402,260.672 254.406 C 259.873 254.410,259.589 254.484,260.041 254.571 M263.310 254.935 C 263.762 255.021,264.416 255.018,264.764 254.927 C 265.111 254.836,264.741 254.765,263.942 254.769 C 263.143 254.773,262.858 254.848,263.310 254.935 M308.538 254.928 C 308.887 255.019,309.460 255.019,309.809 254.928 C 310.159 254.837,309.873 254.762,309.173 254.762 C 308.474 254.762,308.188 254.837,308.538 254.928 M266.939 255.297 C 267.389 255.384,268.124 255.384,268.574 255.297 C 269.024 255.211,268.656 255.140,267.757 255.140 C 266.857 255.140,266.490 255.211,266.939 255.297 M305.631 255.291 C 305.981 255.383,306.553 255.383,306.903 255.291 C 307.252 255.200,306.966 255.125,306.267 255.125 C 305.568 255.125,305.282 255.200,305.631 255.291 M271.122 255.665 C 271.674 255.748,272.492 255.746,272.939 255.660 C 273.386 255.574,272.934 255.505,271.935 255.508 C 270.936 255.511,270.570 255.581,271.122 255.665 M301.817 255.661 C 302.266 255.747,303.002 255.747,303.451 255.661 C 303.901 255.574,303.533 255.503,302.634 255.503 C 301.735 255.503,301.367 255.574,301.817 255.661 M275.658 256.030 C 276.308 256.111,277.371 256.111,278.020 256.030 C 278.669 255.950,278.138 255.884,276.839 255.884 C 275.540 255.884,275.009 255.950,275.658 256.030 M296.367 256.030 C 297.016 256.111,298.079 256.111,298.728 256.030 C 299.378 255.950,298.847 255.884,297.548 255.884 C 296.249 255.884,295.718 255.950,296.367 256.030 M284.758 256.401 C 286.416 256.469,289.032 256.468,290.571 256.401 C 292.110 256.333,290.754 256.277,287.557 256.278 C 284.360 256.278,283.100 256.334,284.758 256.401 " stroke="none" fill="#b7c0c8" fill-rule="evenodd"></path><path id="path3" d="M156.857 190.635 C 157.507 190.716,158.569 190.716,159.219 190.635 C 159.868 190.555,159.337 190.489,158.038 190.489 C 156.739 190.489,156.208 190.555,156.857 190.635 M163.403 190.636 C 164.056 190.717,165.037 190.715,165.583 190.632 C 166.129 190.549,165.595 190.483,164.396 190.485 C 163.197 190.487,162.750 190.555,163.403 190.636 M219.541 222.162 C 219.544 223.161,219.614 223.526,219.698 222.974 C 219.781 222.422,219.779 221.604,219.693 221.158 C 219.606 220.711,219.538 221.163,219.541 222.162 " stroke="none" fill="#a7b4bc" fill-rule="evenodd"></path><path id="path4" d="M84.994 39.146 L 83.742 40.509 85.104 39.257 C 85.854 38.568,86.467 37.955,86.467 37.894 C 86.467 37.617,86.159 37.878,84.994 39.146 M139.964 53.293 C 140.313 53.385,140.886 53.385,141.235 53.293 C 141.585 53.202,141.299 53.127,140.599 53.127 C 139.900 53.127,139.614 53.202,139.964 53.293 M206.903 79.564 C 208.894 81.562,210.604 83.197,210.704 83.197 C 210.804 83.197,209.257 81.562,207.266 79.564 C 205.275 77.566,203.565 75.931,203.465 75.931 C 203.365 75.931,204.912 77.566,206.903 79.564 M250.039 156.948 C 250.039 157.648,250.114 157.934,250.205 157.584 C 250.296 157.234,250.296 156.662,250.205 156.312 C 250.114 155.963,250.039 156.249,250.039 156.948 M250.417 160.945 C 250.417 161.844,250.488 162.212,250.574 161.762 C 250.661 161.312,250.661 160.577,250.574 160.127 C 250.488 159.678,250.417 160.045,250.417 160.945 M250.803 167.121 C 250.803 168.619,250.867 169.233,250.946 168.483 C 251.024 167.734,251.024 166.508,250.946 165.758 C 250.867 165.009,250.803 165.622,250.803 167.121 M238.428 169.664 C 238.428 170.563,238.499 170.931,238.585 170.481 C 238.672 170.032,238.672 169.296,238.585 168.847 C 238.499 168.397,238.428 168.765,238.428 169.664 M238.428 178.020 C 238.428 178.919,238.499 179.287,238.585 178.837 C 238.672 178.388,238.672 177.652,238.585 177.203 C 238.499 176.753,238.428 177.121,238.428 178.020 M250.794 180.745 C 250.796 181.944,250.864 182.390,250.944 181.737 C 251.025 181.084,251.024 180.103,250.941 179.558 C 250.858 179.012,250.792 179.546,250.794 180.745 M250.402 186.013 C 250.402 186.712,250.477 186.998,250.568 186.649 C 250.660 186.299,250.660 185.727,250.568 185.377 C 250.477 185.027,250.402 185.313,250.402 186.013 M250.039 189.282 C 250.039 189.982,250.114 190.268,250.205 189.918 C 250.296 189.569,250.296 188.996,250.205 188.647 C 250.114 188.297,250.039 188.583,250.039 189.282 M153.588 190.629 C 154.037 190.715,154.773 190.715,155.223 190.629 C 155.672 190.542,155.304 190.471,154.405 190.471 C 153.506 190.471,153.138 190.542,153.588 190.629 M167.212 190.633 C 167.761 190.716,168.660 190.716,169.210 190.633 C 169.759 190.549,169.310 190.481,168.211 190.481 C 167.112 190.481,166.662 190.549,167.212 190.633 M219.521 219.437 C 219.521 220.136,219.596 220.422,219.687 220.073 C 219.779 219.723,219.779 219.151,219.687 218.801 C 219.596 218.451,219.521 218.738,219.521 219.437 M280.018 256.024 C 280.468 256.110,281.203 256.110,281.653 256.024 C 282.103 255.937,281.735 255.866,280.836 255.866 C 279.936 255.866,279.569 255.937,280.018 256.024 " stroke="none" fill="#a4acb9" fill-rule="evenodd"></path></g></svg>