<svg id="svg" version="1.1" xmlns="http://www.w3.org/2000/svg" xmlns:xlink="http://www.w3.org/1999/xlink" width="400" height="400" viewBox="0, 0, 400,400"><g id="svgg"><path id="path0" d="M296.794 95.244 C 296.587 95.373,266.501 125.282,229.937 161.708 C 193.372 198.134,163.117 228.232,162.703 228.591 C 161.950 229.244,161.947 229.241,157.758 225.120 C 155.452 222.851,149.832 217.328,145.270 212.845 C 140.707 208.363,128.091 195.852,117.233 185.043 C 106.375 174.235,97.279 165.225,97.019 165.022 C 96.372 164.514,54.515 206.341,54.676 207.334 C 54.805 208.124,159.280 312.772,161.109 313.943 L 162.391 314.764 250.235 226.860 C 339.955 137.080,339.102 137.942,339.117 137.043 C 339.122 136.757,332.592 130.023,324.607 122.080 C 302.547 100.139,297.208 94.988,296.794 95.244 " stroke="none" fill="#fbfbfb" fill-rule="evenodd"></path><path id="path1" d="M190.783 4.054 C 166.962 5.152,140.354 11.429,120.696 20.588 C 107.945 26.528,87.511 38.292,85.217 41.011 C 85.122 41.125,84.261 41.758,83.304 42.419 C 81.238 43.846,73.662 49.919,72.168 51.345 C 71.590 51.897,70.260 53.052,69.211 53.913 C 62.554 59.378,50.040 73.068,42.767 82.843 C 27.934 102.778,15.647 128.345,10.284 150.435 C 7.972 159.955,7.258 163.413,6.300 169.739 C 5.610 174.292,5.332 176.357,4.473 183.304 C 3.918 187.803,3.902 211.976,4.451 216.435 C 4.681 218.300,5.035 221.352,5.238 223.217 C 5.674 227.243,6.174 230.824,6.632 233.217 C 7.164 235.999,8.753 243.888,9.049 245.217 C 9.198 245.887,9.432 246.983,9.569 247.652 C 13.460 266.663,26.289 294.529,40.153 314.087 C 40.899 315.139,41.835 316.470,42.233 317.043 C 42.631 317.617,43.039 318.165,43.139 318.261 C 43.240 318.357,43.866 319.139,44.531 319.999 C 45.195 320.859,45.998 321.876,46.314 322.260 C 46.630 322.643,47.878 324.209,49.087 325.739 C 50.295 327.270,51.531 328.757,51.833 329.043 C 52.134 329.330,52.763 330.113,53.230 330.783 C 54.306 332.325,65.173 343.203,68.173 345.740 C 69.417 346.792,70.669 347.891,70.956 348.183 C 71.243 348.475,72.965 349.941,74.783 351.442 C 76.600 352.943,78.478 354.507,78.957 354.918 C 79.435 355.329,80.374 356.046,81.043 356.511 C 81.713 356.977,82.339 357.452,82.435 357.567 C 82.530 357.682,83.626 358.472,84.870 359.323 C 86.113 360.173,87.298 361.026,87.503 361.218 C 87.834 361.526,91.157 363.714,96.581 367.194 C 97.570 367.829,98.458 368.348,98.555 368.348 C 98.652 368.348,100.034 369.153,101.627 370.136 C 116.069 379.057,140.039 388.347,158.783 392.290 C 200.861 401.141,241.944 396.695,281.633 378.996 C 285.052 377.471,295.448 372.280,296.864 371.390 C 297.243 371.152,298.211 370.526,299.013 370.000 C 299.816 369.474,300.565 369.043,300.677 369.043 C 300.789 369.043,301.700 368.520,302.701 367.881 C 303.702 367.242,305.852 365.875,307.478 364.843 C 310.081 363.192,317.878 357.775,319.304 356.626 C 319.591 356.395,320.843 355.409,322.087 354.435 C 326.511 350.969,328.902 348.993,330.294 347.652 C 330.890 347.078,332.840 345.278,334.626 343.652 C 337.949 340.628,341.503 337.031,343.882 334.284 C 344.616 333.435,345.691 332.261,346.269 331.675 C 346.848 331.088,347.552 330.281,347.835 329.879 C 348.117 329.478,349.234 328.148,350.318 326.923 C 351.401 325.698,352.651 324.226,353.095 323.652 C 353.538 323.078,354.266 322.217,354.712 321.739 C 355.157 321.261,356.818 319.070,358.402 316.870 C 376.842 291.257,387.777 265.629,393.800 233.913 C 394.466 230.404,395.556 221.070,396.157 213.739 C 396.626 208.006,396.633 191.754,396.168 187.056 C 395.973 185.088,395.654 181.678,395.458 179.478 C 395.097 175.407,394.650 171.993,394.070 168.870 C 392.529 160.577,391.591 155.755,391.262 154.435 C 385.670 131.988,374.577 106.776,363.026 90.261 C 359.672 85.466,357.100 81.889,356.898 81.739 C 356.769 81.643,355.895 80.548,354.957 79.304 C 352.650 76.248,347.883 70.497,345.043 67.346 C 342.631 64.669,333.489 55.532,332.601 54.912 C 332.167 54.608,331.228 53.828,330.514 53.179 C 329.801 52.530,328.357 51.295,327.304 50.434 C 326.252 49.574,325.078 48.580,324.696 48.226 C 324.085 47.661,316.066 41.576,313.731 39.905 C 300.359 30.340,284.603 21.986,269.391 16.397 C 264.202 14.490,256.104 11.943,250.783 10.543 C 247.401 9.653,246.707 9.481,242.783 8.563 C 226.673 4.793,208.653 3.230,190.783 4.054 M299.744 96.783 C 309.078 105.451,340.174 136.548,340.174 137.214 C 340.174 138.038,162.914 315.130,162.089 315.130 C 161.705 315.130,161.391 314.974,161.391 314.783 C 161.391 314.591,161.161 314.435,160.880 314.435 C 159.610 314.435,54.261 208.574,54.261 207.298 C 54.261 206.163,55.553 204.797,75.362 184.985 L 96.464 163.882 98.511 165.680 C 99.637 166.669,114.363 181.210,131.236 197.993 L 161.913 228.508 182.957 207.532 C 194.530 195.996,211.890 178.742,221.534 169.191 C 231.177 159.640,251.916 138.965,267.621 123.246 C 283.325 107.527,296.450 94.653,296.788 94.638 C 297.126 94.622,298.456 95.587,299.744 96.783 " stroke="none" fill="#74b454" fill-rule="evenodd"></path><path id="path2" d="M198.358 3.387 C 199.273 3.458,200.681 3.458,201.489 3.385 C 202.296 3.312,201.548 3.253,199.826 3.254 C 198.104 3.255,197.444 3.315,198.358 3.387 M194.004 3.724 C 194.437 3.807,195.063 3.804,195.395 3.717 C 195.728 3.630,195.374 3.562,194.609 3.566 C 193.843 3.570,193.571 3.641,194.004 3.724 M206.348 3.732 C 207.065 3.807,208.239 3.807,208.957 3.732 C 209.674 3.657,209.087 3.595,207.652 3.595 C 206.217 3.595,205.630 3.657,206.348 3.732 M215.043 4.066 C 215.378 4.153,215.926 4.153,216.261 4.066 C 216.596 3.978,216.322 3.907,215.652 3.907 C 214.983 3.907,214.709 3.978,215.043 4.066 M338.435 60.348 C 340.629 62.548,342.502 64.348,342.597 64.348 C 342.693 64.348,340.976 62.548,338.783 60.348 C 336.589 58.148,334.716 56.348,334.620 56.348 C 334.524 56.348,336.241 58.148,338.435 60.348 M64.500 57.826 L 63.478 58.957 64.609 57.935 C 65.230 57.373,65.739 56.864,65.739 56.804 C 65.739 56.536,65.452 56.772,64.500 57.826 M272.521 118.696 L 251.304 140.000 272.609 118.784 C 292.412 99.062,294.069 97.391,293.825 97.391 C 293.777 97.391,284.190 106.978,272.521 118.696 M305.565 102.957 C 306.312 103.722,307.002 104.348,307.098 104.348 C 307.193 104.348,306.660 103.722,305.913 102.957 C 305.166 102.191,304.476 101.565,304.381 101.565 C 304.285 101.565,304.818 102.191,305.565 102.957 M324.870 121.913 C 331.467 128.513,336.944 133.913,337.040 133.913 C 337.135 133.913,331.815 128.513,325.217 121.913 C 318.619 115.313,313.143 109.913,313.047 109.913 C 312.952 109.913,318.272 115.313,324.870 121.913 M323.824 153.652 L 311.826 165.739 323.913 153.741 C 335.147 142.590,336.156 141.565,335.911 141.565 C 335.862 141.565,330.423 147.004,323.824 153.652 M104.696 172.000 C 106.889 174.200,108.763 176.000,108.858 176.000 C 108.954 176.000,107.237 174.200,105.043 172.000 C 102.850 169.800,100.977 168.000,100.881 168.000 C 100.785 168.000,102.502 169.800,104.696 172.000 M127.478 194.783 C 136.659 203.965,144.249 211.478,144.345 211.478 C 144.441 211.478,137.007 203.965,127.826 194.783 C 118.645 185.600,111.055 178.087,110.959 178.087 C 110.864 178.087,118.297 185.600,127.478 194.783 M3.926 184.522 C 3.928 185.478,3.996 185.828,4.076 185.300 C 4.156 184.771,4.153 183.988,4.071 183.560 C 3.988 183.133,3.923 183.565,3.926 184.522 M187.825 203.043 L 171.304 219.652 187.913 203.132 C 197.048 194.046,204.522 186.572,204.522 186.523 C 204.522 186.279,203.180 187.606,187.825 203.043 M396.616 188.870 C 396.616 189.730,396.684 190.083,396.767 189.652 C 396.850 189.222,396.850 188.517,396.767 188.087 C 396.684 187.657,396.616 188.009,396.616 188.870 M3.595 194.783 C 3.595 196.217,3.657 196.804,3.732 196.087 C 3.807 195.370,3.807 194.196,3.732 193.478 C 3.657 192.761,3.595 193.348,3.595 194.783 M3.230 201.913 C 3.233 202.870,3.300 203.220,3.380 202.691 C 3.460 202.162,3.458 201.380,3.375 200.952 C 3.293 200.524,3.227 200.957,3.230 201.913 M3.573 206.261 C 3.573 207.122,3.641 207.474,3.724 207.043 C 3.807 206.613,3.807 205.909,3.724 205.478 C 3.641 205.048,3.573 205.400,3.573 206.261 M259.303 218.174 L 246.783 230.783 259.391 218.263 C 266.326 211.377,272.000 205.703,272.000 205.654 C 272.000 205.409,270.939 206.455,259.303 218.174 M396.633 211.826 C 396.633 213.070,396.696 213.578,396.773 212.957 C 396.851 212.335,396.851 211.317,396.773 210.696 C 396.696 210.074,396.633 210.583,396.633 211.826 M395.914 220.696 C 395.918 221.461,395.989 221.733,396.072 221.300 C 396.155 220.868,396.152 220.242,396.065 219.909 C 395.978 219.576,395.910 219.930,395.914 220.696 M127.130 281.043 C 142.434 296.348,155.033 308.870,155.129 308.870 C 155.224 308.870,142.782 296.348,127.478 281.043 C 112.175 265.739,99.576 253.217,99.480 253.217 C 99.384 253.217,111.827 265.739,127.130 281.043 M182.776 294.610 C 171.486 305.896,162.330 315.130,162.430 315.130 C 162.529 315.130,171.845 305.896,183.130 294.609 C 194.416 283.322,203.572 274.087,203.477 274.088 C 203.382 274.088,194.067 283.323,182.776 294.610 M57.217 335.652 C 57.965 336.417,58.654 337.043,58.750 337.043 C 58.846 337.043,58.312 336.417,57.565 335.652 C 56.818 334.887,56.128 334.261,56.033 334.261 C 55.937 334.261,56.470 334.887,57.217 335.652 M197.652 397.123 C 198.370 397.198,199.543 397.198,200.261 397.123 C 200.978 397.048,200.391 396.987,198.957 396.987 C 197.522 396.987,196.935 397.048,197.652 397.123 " stroke="none" fill="#a3cd8f" fill-rule="evenodd"></path><path id="path3" d="M197.985 3.736 C 199.268 3.803,201.459 3.803,202.854 3.737 C 204.250 3.671,203.200 3.616,200.522 3.615 C 197.843 3.615,196.702 3.669,197.985 3.736 M184.696 4.152 C 184.217 4.294,185.704 4.344,188.000 4.264 C 190.296 4.184,192.330 4.065,192.522 4.000 C 193.236 3.756,185.530 3.906,184.696 4.152 M210.464 3.958 C 210.543 4.031,212.174 4.176,214.087 4.279 C 216.548 4.413,217.056 4.383,215.826 4.177 C 214.038 3.879,210.205 3.722,210.464 3.958 M177.391 4.859 C 176.913 5.007,177.774 5.048,179.304 4.951 C 180.835 4.854,182.152 4.718,182.232 4.648 C 182.508 4.407,178.257 4.592,177.391 4.859 M219.507 4.653 C 219.587 4.725,220.748 4.871,222.087 4.978 C 223.623 5.100,224.136 5.067,223.478 4.888 C 222.421 4.600,219.241 4.412,219.507 4.653 M172.000 5.572 C 171.558 5.766,172.066 5.803,173.391 5.673 C 174.539 5.561,175.543 5.412,175.623 5.343 C 175.931 5.076,172.658 5.283,172.000 5.572 M226.783 5.583 C 228.907 5.961,230.548 5.948,229.043 5.565 C 228.470 5.419,227.374 5.301,226.609 5.302 L 225.217 5.304 226.783 5.583 M167.130 6.263 C 166.683 6.457,167.055 6.493,168.174 6.364 C 169.130 6.253,169.978 6.107,170.058 6.038 C 170.360 5.778,167.795 5.975,167.130 6.263 M230.986 6.038 C 231.065 6.106,231.757 6.258,232.522 6.376 C 233.469 6.521,233.747 6.483,233.391 6.256 C 232.916 5.953,230.648 5.747,230.986 6.038 M163.304 6.966 C 162.840 7.171,163.129 7.205,164.174 7.067 C 165.035 6.953,165.804 6.803,165.884 6.734 C 166.186 6.473,163.969 6.671,163.304 6.966 M234.464 6.736 C 234.543 6.807,235.235 6.960,236.000 7.076 C 236.970 7.224,237.180 7.192,236.696 6.973 C 236.028 6.670,234.165 6.473,234.464 6.736 M159.652 7.648 C 159.297 7.874,159.574 7.912,160.522 7.767 C 162.241 7.503,162.534 7.303,161.188 7.310 C 160.630 7.313,159.939 7.465,159.652 7.648 M238.609 7.652 C 239.087 7.805,239.791 7.935,240.174 7.941 L 240.870 7.951 240.174 7.652 C 239.791 7.488,239.087 7.358,238.609 7.363 L 237.739 7.374 238.609 7.652 M156.522 8.364 C 156.141 8.622,156.281 8.654,157.043 8.483 C 158.322 8.197,158.600 7.998,157.710 8.005 C 157.343 8.008,156.809 8.170,156.522 8.364 M242.087 8.348 C 243.276 8.729,244.191 8.729,243.304 8.348 C 242.922 8.183,242.296 8.053,241.913 8.059 C 241.354 8.067,241.388 8.124,242.087 8.348 M153.739 9.059 C 153.358 9.317,153.499 9.349,154.261 9.179 C 155.540 8.893,155.817 8.694,154.928 8.701 C 154.561 8.704,154.026 8.865,153.739 9.059 M244.870 9.043 C 245.157 9.229,245.626 9.381,245.913 9.381 C 246.377 9.381,246.377 9.343,245.913 9.043 C 245.626 8.858,245.157 8.706,244.870 8.706 C 244.406 8.706,244.406 8.744,244.870 9.043 M150.957 9.755 C 150.575 10.013,150.716 10.045,151.478 9.875 C 152.757 9.589,153.035 9.390,152.145 9.397 C 151.778 9.400,151.243 9.561,150.957 9.755 M247.652 9.739 C 247.939 9.925,248.487 10.068,248.870 10.057 L 249.565 10.038 248.870 9.739 C 247.830 9.292,246.961 9.292,247.652 9.739 M148.174 10.435 C 147.482 10.882,148.351 10.882,149.391 10.435 L 150.087 10.136 149.391 10.117 C 149.009 10.106,148.461 10.249,148.174 10.435 M250.261 10.435 C 250.643 10.599,251.191 10.734,251.478 10.734 C 251.807 10.734,251.743 10.623,251.304 10.435 C 250.922 10.270,250.374 10.136,250.087 10.136 C 249.758 10.136,249.822 10.246,250.261 10.435 M145.739 11.130 C 145.048 11.577,145.917 11.577,146.957 11.130 L 147.652 10.832 146.957 10.812 C 146.574 10.802,146.026 10.945,145.739 11.130 M253.043 11.130 C 253.426 11.295,253.974 11.429,254.261 11.429 C 254.590 11.429,254.525 11.319,254.087 11.130 C 253.704 10.966,253.157 10.832,252.870 10.832 C 252.541 10.832,252.605 10.942,253.043 11.130 M143.478 11.826 C 143.224 12.237,143.564 12.237,144.522 11.826 C 145.192 11.538,145.190 11.526,144.455 11.503 C 144.036 11.489,143.596 11.635,143.478 11.826 M255.304 11.826 C 255.591 12.012,256.061 12.163,256.348 12.163 C 256.812 12.163,256.812 12.126,256.348 11.826 C 256.061 11.641,255.591 11.489,255.304 11.489 C 254.841 11.489,254.841 11.526,255.304 11.826 M141.043 12.522 C 140.789 12.933,141.130 12.933,142.087 12.522 C 142.758 12.234,142.755 12.222,142.021 12.198 C 141.601 12.185,141.162 12.330,141.043 12.522 M257.565 12.522 C 257.948 12.686,258.496 12.821,258.783 12.821 C 259.111 12.821,259.047 12.710,258.609 12.522 C 258.226 12.357,257.678 12.223,257.391 12.223 C 257.062 12.223,257.127 12.333,257.565 12.522 M262.261 13.913 C 262.548 14.098,263.017 14.250,263.304 14.250 C 263.768 14.250,263.768 14.213,263.304 13.913 C 263.017 13.728,262.548 13.576,262.261 13.576 C 261.797 13.576,261.797 13.613,262.261 13.913 M264.348 14.609 C 264.635 14.794,265.104 14.946,265.391 14.946 C 265.855 14.946,265.855 14.908,265.391 14.609 C 265.104 14.423,264.635 14.272,264.348 14.272 C 263.884 14.272,263.884 14.309,264.348 14.609 M274.902 18.475 C 275.638 18.863,276.320 19.100,276.418 19.002 C 276.588 18.832,274.244 17.722,273.784 17.755 C 273.663 17.763,274.167 18.087,274.902 18.475 M124.040 18.631 C 123.825 19.191,124.118 19.265,124.812 18.826 C 125.189 18.586,125.178 18.494,124.754 18.331 C 124.466 18.221,124.145 18.356,124.040 18.631 M294.261 27.634 C 294.261 27.730,294.730 28.051,295.304 28.348 C 295.878 28.645,296.348 28.809,296.348 28.714 C 296.348 28.618,295.878 28.297,295.304 28.000 C 294.730 27.703,294.261 27.539,294.261 27.634 M103.913 28.721 C 102.613 29.426,102.692 29.720,104.000 29.043 C 104.574 28.747,105.043 28.430,105.043 28.339 C 105.043 28.115,105.006 28.128,103.913 28.721 M101.217 30.290 L 100.348 30.998 101.478 30.447 C 102.100 30.143,102.609 29.821,102.609 29.730 C 102.609 29.384,102.055 29.607,101.217 30.290 M299.130 30.426 C 299.130 30.517,299.639 30.839,300.261 31.142 L 301.391 31.694 300.522 30.985 C 299.685 30.303,299.130 30.080,299.130 30.426 M99.043 31.503 C 97.743 32.209,97.822 32.503,99.130 31.826 C 99.704 31.529,100.174 31.212,100.174 31.122 C 100.174 30.898,100.137 30.910,99.043 31.503 M302.609 32.513 C 302.609 32.604,303.117 32.926,303.739 33.229 L 304.870 33.781 304.000 33.072 C 303.163 32.390,302.609 32.167,302.609 32.513 M93.652 34.859 C 93.222 35.067,92.870 35.373,92.870 35.539 C 92.870 35.706,93.261 35.586,93.739 35.272 C 95.015 34.436,94.970 34.224,93.652 34.859 M306.588 34.968 C 306.960 35.248,307.420 35.478,307.611 35.478 C 307.803 35.478,307.655 35.248,307.284 34.968 C 306.913 34.687,306.452 34.457,306.261 34.457 C 306.070 34.457,306.217 34.687,306.588 34.968 M91.565 36.251 C 91.135 36.458,90.783 36.764,90.783 36.931 C 90.783 37.097,91.174 36.977,91.652 36.664 C 92.928 35.828,92.883 35.615,91.565 36.251 M89.243 37.747 C 88.874 38.025,88.642 38.323,88.726 38.407 C 88.811 38.492,89.269 38.262,89.744 37.897 C 90.220 37.532,90.452 37.234,90.261 37.236 C 90.070 37.238,89.611 37.468,89.243 37.747 M313.391 39.566 C 313.391 39.712,313.704 40.028,314.087 40.267 C 314.470 40.506,314.783 40.581,314.783 40.434 C 314.783 40.288,314.470 39.972,314.087 39.733 C 313.704 39.494,313.391 39.419,313.391 39.566 M83.410 41.871 C 82.512 42.468,81.769 43.084,81.758 43.239 C 81.748 43.394,82.483 43.005,83.391 42.375 C 84.300 41.744,85.109 41.187,85.188 41.136 C 85.268 41.085,85.268 40.985,85.188 40.914 C 85.109 40.843,84.309 41.274,83.410 41.871 M318.957 43.555 C 318.957 43.643,319.896 44.444,321.043 45.335 C 322.191 46.226,323.126 46.839,323.120 46.695 C 323.113 46.552,322.683 46.131,322.163 45.761 C 321.643 45.390,320.709 44.706,320.087 44.241 C 319.465 43.776,318.957 43.467,318.957 43.555 M76.870 47.008 C 76.391 47.407,75.696 47.946,75.325 48.206 C 74.954 48.467,74.720 48.749,74.804 48.833 C 74.888 48.917,75.661 48.378,76.522 47.634 C 78.131 46.244,78.427 45.711,76.870 47.008 M325.237 48.582 C 325.247 48.740,325.717 49.234,326.280 49.679 C 326.843 50.124,327.296 50.358,327.285 50.200 C 327.275 50.042,326.805 49.549,326.242 49.104 C 325.678 48.659,325.226 48.424,325.237 48.582 M70.315 52.557 C 69.675 53.139,69.207 53.670,69.275 53.738 C 69.343 53.806,70.001 53.326,70.737 52.670 C 71.474 52.015,71.942 51.483,71.778 51.488 C 71.613 51.494,70.955 51.975,70.315 52.557 M329.421 52.047 C 329.437 52.212,330.063 52.875,330.812 53.519 C 331.561 54.163,332.161 54.554,332.144 54.388 C 332.128 54.223,331.502 53.560,330.753 52.916 C 330.004 52.272,329.405 51.881,329.421 52.047 M61.285 60.975 C 60.100 62.171,59.130 63.248,59.130 63.368 C 59.130 63.489,60.154 62.565,61.404 61.314 C 62.655 60.063,63.624 58.987,63.559 58.921 C 63.493 58.855,62.470 59.780,61.285 60.975 M346.445 68.744 C 346.458 69.116,348.525 71.417,348.695 71.247 C 348.763 71.179,348.282 70.521,347.627 69.784 C 346.971 69.048,346.439 68.580,346.445 68.744 M52.435 70.450 C 51.909 71.068,51.478 71.675,51.478 71.799 C 51.478 71.923,51.969 71.466,52.568 70.783 C 53.167 70.100,53.598 69.493,53.525 69.434 C 53.451 69.374,52.961 69.831,52.435 70.450 M349.926 72.932 C 349.934 73.089,350.657 74.000,351.533 74.957 L 353.126 76.696 351.959 75.130 C 350.555 73.247,349.908 72.547,349.926 72.932 M47.732 75.955 C 47.306 76.577,46.683 77.391,46.348 77.765 C 45.230 79.011,44.690 79.789,45.122 79.530 C 45.681 79.194,48.808 75.127,48.638 74.956 C 48.565 74.884,48.158 75.334,47.732 75.955 M353.391 77.020 C 353.391 77.214,354.912 79.333,356.757 81.710 C 356.819 81.790,356.946 81.778,357.040 81.685 C 357.133 81.591,356.933 81.213,356.594 80.844 C 356.255 80.476,355.395 79.408,354.684 78.472 C 353.973 77.536,353.391 76.882,353.391 77.020 M42.978 82.034 C 42.607 82.541,41.924 83.465,41.459 84.087 C 40.994 84.709,40.691 85.217,40.786 85.217 C 41.032 85.217,43.914 81.362,43.770 81.225 C 43.705 81.163,43.349 81.527,42.978 82.034 M39.782 86.522 C 38.754 87.934,38.437 88.654,39.284 87.652 C 40.068 86.726,40.799 85.565,40.599 85.565 C 40.533 85.565,40.165 85.996,39.782 86.522 M360.554 86.783 C 360.867 87.261,361.180 87.652,361.250 87.652 C 361.319 87.652,361.198 87.261,360.980 86.783 C 360.762 86.304,360.449 85.913,360.284 85.913 C 360.119 85.913,360.240 86.304,360.554 86.783 M361.739 88.221 C 361.739 88.589,363.786 91.478,364.047 91.478 C 364.135 91.478,363.705 90.735,363.091 89.826 C 361.702 87.771,361.739 87.815,361.739 88.221 M36.931 90.487 C 36.296 91.451,35.835 92.299,35.908 92.371 C 35.980 92.444,36.616 91.646,37.321 90.599 C 38.026 89.552,38.487 88.704,38.345 88.714 C 38.203 88.725,37.567 89.522,36.931 90.487 M364.684 92.783 C 364.987 93.404,365.309 93.913,365.400 93.913 C 365.746 93.913,365.523 93.359,364.841 92.522 L 364.132 91.652 364.684 92.783 M34.548 94.268 C 34.133 95.034,33.921 95.581,34.079 95.483 C 34.513 95.215,35.838 92.869,35.553 92.872 C 35.416 92.874,34.964 93.502,34.548 94.268 M295.356 95.523 C 294.907 96.002,294.605 96.460,294.686 96.541 C 294.767 96.622,295.282 96.220,295.830 95.649 C 296.377 95.077,296.679 94.618,296.500 94.630 C 296.321 94.642,295.806 95.043,295.356 95.523 M366.785 96.174 C 367.144 96.748,368.052 98.282,368.802 99.583 C 369.553 100.884,370.233 101.883,370.313 101.802 C 370.479 101.637,367.101 96.011,366.515 95.478 C 366.305 95.287,366.427 95.600,366.785 96.174 M32.882 96.900 C 32.558 97.395,32.371 97.879,32.468 97.976 C 32.565 98.072,32.895 97.667,33.201 97.076 C 33.877 95.768,33.691 95.665,32.882 96.900 M31.110 99.859 C 30.615 100.642,30.267 101.339,30.335 101.408 C 30.404 101.476,30.881 100.835,31.395 99.984 C 32.570 98.039,32.326 97.933,31.110 99.859 M307.367 104.457 C 310.392 107.427,312.924 109.801,312.993 109.732 C 313.144 109.580,302.695 99.356,302.209 99.181 C 302.020 99.112,304.341 101.487,307.367 104.457 M370.957 103.304 C 371.253 103.878,371.574 104.348,371.670 104.348 C 371.766 104.348,371.601 103.878,371.304 103.304 C 371.008 102.730,370.686 102.261,370.591 102.261 C 370.495 102.261,370.660 102.730,370.957 103.304 M28.372 104.575 C 27.875 105.465,27.523 106.248,27.591 106.316 C 27.658 106.383,28.140 105.655,28.661 104.697 C 29.182 103.740,29.534 102.957,29.443 102.957 C 29.352 102.957,28.870 103.685,28.372 104.575 M372.139 105.217 C 372.725 106.352,373.207 106.981,373.204 106.609 C 373.203 106.417,372.882 105.870,372.491 105.391 C 372.018 104.814,371.900 104.755,372.139 105.217 M377.068 114.957 C 377.068 115.148,377.292 115.696,377.565 116.174 C 377.839 116.652,378.062 116.887,378.062 116.696 C 378.062 116.504,377.839 115.957,377.565 115.478 C 377.292 115.000,377.068 114.765,377.068 114.957 M21.430 118.300 C 20.919 119.478,20.558 120.500,20.628 120.570 C 20.698 120.640,21.172 119.731,21.681 118.551 C 22.191 117.370,22.551 116.349,22.483 116.280 C 22.415 116.212,21.941 117.121,21.430 118.300 M379.247 119.739 C 379.898 121.293,381.529 124.399,381.549 124.123 C 381.572 123.810,379.085 118.609,378.913 118.609 C 378.836 118.609,378.987 119.117,379.247 119.739 M19.935 121.652 C 19.816 121.987,19.273 123.261,18.729 124.483 C 18.185 125.705,17.743 126.879,17.747 127.092 C 17.751 127.304,18.078 126.774,18.473 125.913 C 19.625 123.405,20.526 121.043,20.332 121.043 C 20.233 121.043,20.055 121.317,19.935 121.652 M381.834 125.304 C 382.158 126.545,384.316 131.694,384.333 131.265 C 384.341 131.052,383.878 129.740,383.304 128.348 C 382.730 126.956,382.261 125.613,382.261 125.364 C 382.261 125.115,382.119 124.823,381.945 124.716 C 381.772 124.608,381.722 124.873,381.834 125.304 M16.224 130.873 C 15.415 132.992,15.548 133.395,16.379 131.346 C 16.758 130.412,17.007 129.586,16.932 129.512 C 16.857 129.437,16.539 130.050,16.224 130.873 M385.237 133.533 C 385.130 133.707,385.187 134.215,385.365 134.664 C 385.658 135.404,385.682 135.375,385.626 134.349 C 385.560 133.122,385.530 133.059,385.237 133.533 M337.739 134.532 C 337.739 134.694,338.209 135.276,338.783 135.826 C 340.106 137.094,340.091 137.345,338.614 138.778 C 337.947 139.424,337.473 140.024,337.561 140.112 C 337.798 140.349,340.156 137.638,340.166 137.119 C 340.170 136.873,339.626 136.125,338.957 135.455 C 338.287 134.786,337.739 134.370,337.739 134.532 M14.374 135.758 C 14.316 136.801,14.333 136.818,14.645 136.028 C 14.828 135.565,14.856 135.065,14.706 134.916 C 14.557 134.767,14.407 135.146,14.374 135.758 M385.933 135.620 C 385.826 135.794,385.883 136.302,386.060 136.750 C 386.353 137.491,386.377 137.462,386.322 136.435 C 386.256 135.209,386.226 135.146,385.933 135.620 M13.678 137.845 C 13.621 138.888,13.637 138.905,13.950 138.115 C 14.132 137.652,14.160 137.152,14.011 137.003 C 13.861 136.854,13.712 137.233,13.678 137.845 M386.629 137.707 C 386.521 137.881,386.579 138.389,386.756 138.837 C 387.049 139.578,387.073 139.549,387.018 138.522 C 386.951 137.296,386.921 137.233,386.629 137.707 M387.531 141.217 C 387.531 141.504,387.742 142.287,388.000 142.957 C 388.258 143.626,388.469 143.939,388.469 143.652 C 388.469 143.365,388.258 142.583,388.000 141.913 C 387.742 141.243,387.531 140.930,387.531 141.217 M11.893 143.077 C 11.665 143.707,11.486 144.447,11.495 144.720 C 11.504 144.994,11.750 144.537,12.041 143.706 C 12.332 142.874,12.511 142.135,12.439 142.062 C 12.367 141.990,12.121 142.446,11.893 143.077 M390.125 150.087 C 390.411 151.366,390.610 151.644,390.603 150.754 C 390.600 150.387,390.439 149.852,390.245 149.565 C 389.987 149.184,389.955 149.325,390.125 150.087 M222.742 168.006 C 213.729 176.994,206.451 184.348,206.570 184.348 C 206.688 184.348,214.141 176.991,223.130 168.000 C 232.120 159.009,239.398 151.655,239.303 151.658 C 239.208 151.661,231.756 159.018,222.742 168.006 M390.833 152.696 C 391.108 154.196,391.306 154.479,391.299 153.362 C 391.296 152.900,391.140 152.287,390.952 152.000 C 390.711 151.633,390.676 151.839,390.833 152.696 M8.913 154.274 C 8.793 154.585,8.714 155.257,8.736 155.768 C 8.766 156.463,8.844 156.346,9.047 155.304 C 9.335 153.826,9.271 153.339,8.913 154.274 M7.527 160.769 C 7.410 161.207,7.327 161.878,7.344 162.261 C 7.361 162.643,7.517 162.346,7.693 161.600 C 8.032 160.154,7.887 159.426,7.527 160.769 M392.933 162.435 C 393.047 163.296,393.197 164.065,393.266 164.145 C 393.527 164.447,393.329 162.230,393.034 161.565 C 392.829 161.101,392.795 161.390,392.933 162.435 M75.390 184.958 C 63.769 196.580,54.261 206.170,54.261 206.269 C 54.261 206.367,63.764 196.940,75.378 185.320 L 96.496 164.192 97.378 164.966 L 98.261 165.739 97.418 164.783 C 96.954 164.257,96.562 163.826,96.547 163.826 C 96.532 163.826,87.011 173.335,75.390 184.958 M6.696 165.739 C 6.700 166.504,6.772 166.776,6.855 166.344 C 6.938 165.911,6.935 165.285,6.848 164.952 C 6.761 164.620,6.693 164.974,6.696 165.739 M393.610 166.087 C 393.715 167.043,393.942 168.374,394.116 169.043 C 394.289 169.713,394.444 170.730,394.460 171.304 C 394.476 171.878,394.576 172.129,394.682 171.862 C 394.872 171.383,394.278 167.428,393.710 165.391 C 393.498 164.627,393.471 164.814,393.610 166.087 M6.133 168.379 C 6.012 168.984,5.931 169.889,5.954 170.391 C 5.976 170.893,6.135 170.459,6.306 169.425 C 6.641 167.410,6.498 166.551,6.133 168.379 M5.317 174.783 C 5.319 175.739,5.387 176.089,5.467 175.560 C 5.547 175.032,5.545 174.249,5.462 173.821 C 5.380 173.394,5.314 173.826,5.317 174.783 M395.242 176.348 C 395.242 177.591,395.305 178.100,395.382 177.478 C 395.459 176.857,395.459 175.839,395.382 175.217 C 395.305 174.596,395.242 175.104,395.242 176.348 M4.621 180.348 C 4.624 181.304,4.691 181.654,4.771 181.126 C 4.851 180.597,4.849 179.814,4.767 179.387 C 4.684 178.959,4.619 179.391,4.621 180.348 M395.559 179.826 C 395.559 180.496,395.631 180.770,395.718 180.435 C 395.806 180.100,395.806 179.552,395.718 179.217 C 395.631 178.883,395.559 179.157,395.559 179.826 M395.943 183.652 C 395.943 185.087,396.004 185.674,396.079 184.957 C 396.155 184.239,396.155 183.065,396.079 182.348 C 396.004 181.630,395.943 182.217,395.943 183.652 M4.262 183.478 C 4.265 184.243,4.337 184.516,4.420 184.083 C 4.503 183.650,4.500 183.024,4.413 182.692 C 4.326 182.359,4.258 182.713,4.262 183.478 M3.960 190.261 C 3.960 192.652,4.016 193.630,4.084 192.435 C 4.152 191.239,4.152 189.283,4.084 188.087 C 4.016 186.891,3.960 187.870,3.960 190.261 M183.298 207.131 C 171.721 218.705,162.328 228.174,162.425 228.174 C 162.522 228.174,172.075 218.704,183.655 207.130 C 195.235 195.557,204.628 186.087,204.528 186.088 C 204.429 186.088,194.876 195.558,183.298 207.131 M396.262 188.000 C 396.265 188.765,396.337 189.037,396.420 188.605 C 396.503 188.172,396.500 187.546,396.413 187.213 C 396.326 186.881,396.258 187.235,396.262 188.000 M396.675 200.000 C 396.675 205.452,396.723 207.683,396.782 204.957 C 396.841 202.230,396.841 197.770,396.782 195.043 C 396.723 192.317,396.675 194.548,396.675 200.000 M3.610 201.043 C 3.610 203.243,3.666 204.143,3.735 203.043 C 3.804 201.943,3.804 200.143,3.735 199.043 C 3.666 197.943,3.610 198.843,3.610 201.043 M149.913 216.870 C 156.320 223.278,161.640 228.522,161.735 228.522 C 161.831 228.522,156.667 223.278,150.261 216.870 C 143.854 210.461,138.534 205.217,138.439 205.217 C 138.343 205.217,143.506 210.461,149.913 216.870 M3.960 210.435 C 3.960 212.826,4.016 213.804,4.084 212.609 C 4.152 211.413,4.152 209.457,4.084 208.261 C 4.016 207.065,3.960 208.043,3.960 210.435 M72.348 226.609 C 82.390 236.652,90.684 244.870,90.780 244.870 C 90.876 244.870,82.738 236.652,72.696 226.609 C 62.654 216.565,54.359 208.348,54.263 208.348 C 54.168 208.348,62.306 216.565,72.348 226.609 M396.273 212.696 C 396.276 213.652,396.344 214.002,396.424 213.473 C 396.503 212.945,396.501 212.162,396.419 211.734 C 396.336 211.307,396.271 211.739,396.273 212.696 M395.940 217.217 C 395.942 218.557,396.005 219.062,396.080 218.340 C 396.155 217.618,396.154 216.523,396.077 215.905 C 396.000 215.288,395.939 215.878,395.940 217.217 M4.636 219.652 C 4.637 220.991,4.700 221.497,4.776 220.775 C 4.851 220.053,4.850 218.958,4.773 218.340 C 4.696 217.723,4.634 218.313,4.636 219.652 M395.559 221.217 C 395.559 221.887,395.631 222.161,395.718 221.826 C 395.806 221.491,395.806 220.943,395.718 220.609 C 395.631 220.274,395.559 220.548,395.559 221.217 M395.230 224.522 C 395.233 225.478,395.300 225.828,395.380 225.300 C 395.460 224.771,395.458 223.988,395.375 223.560 C 395.293 223.133,395.227 223.565,395.230 224.522 M5.312 225.739 C 5.312 226.600,5.380 226.952,5.463 226.522 C 5.546 226.091,5.546 225.387,5.463 224.957 C 5.380 224.526,5.312 224.878,5.312 225.739 M394.534 229.739 C 394.537 230.696,394.604 231.046,394.684 230.517 C 394.764 229.988,394.762 229.206,394.680 228.778 C 394.597 228.350,394.532 228.783,394.534 229.739 M6.008 230.957 C 6.008 231.817,6.076 232.170,6.159 231.739 C 6.241 231.309,6.241 230.604,6.159 230.174 C 6.076 229.743,6.008 230.096,6.008 230.957 M6.506 234.261 C 6.619 235.217,6.837 236.313,6.989 236.696 C 7.146 237.091,7.176 236.641,7.059 235.652 C 6.946 234.696,6.729 233.600,6.576 233.217 C 6.419 232.822,6.389 233.272,6.506 234.261 M393.820 234.087 C 393.820 234.757,393.891 235.030,393.979 234.696 C 394.066 234.361,394.066 233.813,393.979 233.478 C 393.891 233.143,393.820 233.417,393.820 234.087 M7.348 238.261 C 7.340 238.739,7.549 239.991,7.811 241.043 C 8.430 243.521,8.448 242.207,7.833 239.478 C 7.574 238.330,7.356 237.783,7.348 238.261 M391.679 243.853 C 391.465 244.850,391.356 245.733,391.437 245.814 C 391.518 245.895,391.759 245.145,391.973 244.147 C 392.187 243.150,392.296 242.267,392.215 242.186 C 392.134 242.105,391.893 242.855,391.679 243.853 M8.736 244.829 C 8.714 245.285,8.845 246.224,9.028 246.916 C 9.210 247.608,9.453 248.623,9.566 249.171 C 9.680 249.720,9.831 250.111,9.901 250.041 C 10.019 249.923,9.734 248.315,9.046 245.217 C 8.846 244.317,8.765 244.216,8.736 244.829 M390.826 247.348 C 390.536 248.798,390.817 249.079,391.130 247.652 C 391.262 247.051,391.298 246.486,391.209 246.398 C 391.121 246.309,390.948 246.737,390.826 247.348 M390.130 250.130 C 389.840 251.580,390.121 251.861,390.435 250.435 C 390.567 249.834,390.602 249.269,390.514 249.180 C 390.425 249.092,390.253 249.519,390.130 250.130 M10.200 251.547 C 10.234 252.254,10.374 252.720,10.513 252.582 C 10.651 252.444,10.624 251.865,10.452 251.296 C 10.143 250.272,10.141 250.274,10.200 251.547 M389.275 253.449 C 389.040 254.330,388.909 255.112,388.984 255.187 C 389.060 255.263,389.321 254.611,389.565 253.739 C 389.809 252.867,389.940 252.085,389.856 252.001 C 389.772 251.917,389.511 252.569,389.275 253.449 M10.788 253.420 C 10.791 253.787,10.952 254.322,11.146 254.609 C 11.404 254.990,11.436 254.849,11.266 254.087 C 10.980 252.808,10.781 252.530,10.788 253.420 M387.708 258.676 C 387.287 260.155,387.242 260.764,387.534 261.031 C 387.810 261.283,387.862 261.273,387.709 260.999 C 387.589 260.784,387.733 259.790,388.030 258.791 C 388.326 257.792,388.503 256.909,388.422 256.828 C 388.341 256.747,388.020 257.579,387.708 258.676 M12.189 258.134 C 12.181 258.447,12.403 259.229,12.682 259.873 C 13.339 261.386,13.355 260.759,12.706 258.957 C 12.430 258.191,12.198 257.821,12.189 258.134 M386.355 263.052 C 385.913 264.376,385.857 264.944,386.146 265.208 C 386.419 265.458,386.467 265.442,386.306 265.153 C 386.178 264.927,386.327 264.110,386.635 263.339 C 386.944 262.568,387.142 261.783,387.076 261.596 C 387.010 261.408,386.686 262.064,386.355 263.052 M13.678 262.851 C 13.712 263.463,13.861 263.841,14.011 263.693 C 14.160 263.544,14.132 263.044,13.950 262.581 C 13.637 261.791,13.621 261.807,13.678 262.851 M14.374 264.938 C 14.407 265.550,14.557 265.928,14.706 265.780 C 14.856 265.631,14.828 265.131,14.645 264.668 C 14.333 263.878,14.316 263.894,14.374 264.938 M384.734 267.517 C 384.520 268.132,384.406 268.695,384.480 268.770 C 384.554 268.844,384.791 268.402,385.005 267.787 C 385.219 267.173,385.334 266.609,385.259 266.535 C 385.185 266.460,384.949 266.902,384.734 267.517 M15.528 267.825 C 15.652 268.302,16.044 269.319,16.399 270.086 C 16.754 270.852,16.943 271.088,16.820 270.610 C 16.696 270.133,16.304 269.115,15.949 268.349 C 15.594 267.583,15.405 267.347,15.528 267.825 M383.545 270.849 C 383.218 271.733,383.007 272.514,383.077 272.584 C 383.147 272.654,383.478 271.994,383.813 271.117 C 384.148 270.240,384.358 269.460,384.281 269.383 C 384.204 269.305,383.873 269.966,383.545 270.849 M382.515 273.463 C 381.197 276.753,380.870 277.683,381.134 277.391 C 381.558 276.922,382.998 273.317,382.829 273.148 C 382.755 273.074,382.614 273.216,382.515 273.463 M19.130 276.943 C 19.130 277.318,20.187 279.652,20.357 279.652 C 20.453 279.652,20.289 279.073,19.994 278.366 C 19.472 277.118,19.130 276.555,19.130 276.943 M379.702 280.247 C 379.585 280.589,379.336 281.222,379.147 281.652 C 378.591 282.925,379.046 282.544,379.681 281.205 C 380.002 280.529,380.186 279.896,380.090 279.800 C 379.993 279.703,379.819 279.905,379.702 280.247 M20.551 280.174 C 20.551 280.365,20.851 281.070,21.217 281.739 C 21.584 282.409,21.884 282.800,21.884 282.609 C 21.884 282.417,21.584 281.713,21.217 281.043 C 20.851 280.374,20.551 279.983,20.551 280.174 M21.917 283.333 C 21.924 283.775,24.669 289.138,25.108 289.565 C 25.304 289.757,24.720 288.426,23.810 286.609 C 22.031 283.055,21.911 282.847,21.917 283.333 M372.730 294.259 C 372.209 295.217,371.857 296.000,371.949 296.000 C 372.181 296.000,373.950 292.791,373.800 292.641 C 373.733 292.573,373.251 293.302,372.730 294.259 M28.000 295.304 C 28.297 295.878,28.618 296.348,28.714 296.348 C 28.809 296.348,28.645 295.878,28.348 295.304 C 28.051 294.730,27.730 294.261,27.634 294.261 C 27.539 294.261,27.703 294.730,28.000 295.304 M371.003 297.478 L 370.377 298.609 371.094 297.739 C 371.730 296.968,372.012 296.348,371.727 296.348 C 371.673 296.348,371.347 296.857,371.003 297.478 M28.927 296.870 C 29.129 297.470,31.363 301.217,31.519 301.217 C 31.732 301.217,30.425 298.791,29.552 297.565 C 29.144 296.991,28.862 296.678,28.927 296.870 M369.760 299.581 C 369.499 300.003,369.056 300.700,368.776 301.130 C 368.497 301.561,368.343 301.913,368.436 301.913 C 368.681 301.913,370.510 299.089,370.361 298.940 C 370.291 298.871,370.021 299.159,369.760 299.581 M367.673 303.059 C 367.412 303.481,366.969 304.178,366.689 304.609 C 366.410 305.039,366.256 305.391,366.349 305.391 C 366.594 305.391,368.423 302.568,368.274 302.419 C 368.204 302.349,367.934 302.638,367.673 303.059 M33.039 303.913 C 33.783 305.234,35.407 307.395,34.934 306.435 C 34.486 305.528,32.585 302.609,32.441 302.609 C 32.365 302.609,32.634 303.196,33.039 303.913 M154.957 309.217 C 155.704 309.983,156.393 310.609,156.489 310.609 C 156.585 310.609,156.052 309.983,155.304 309.217 C 154.557 308.452,153.868 307.826,153.772 307.826 C 153.676 307.826,154.209 308.452,154.957 309.217 M39.015 312.978 C 39.651 313.940,40.235 314.664,40.312 314.587 C 40.474 314.424,38.644 311.715,38.176 311.426 C 38.001 311.318,38.379 312.016,39.015 312.978 M359.192 315.738 C 358.519 316.646,358.034 317.455,358.115 317.535 C 358.195 317.615,358.302 317.616,358.353 317.536 C 358.404 317.457,358.962 316.648,359.592 315.739 C 361.079 313.596,360.779 313.595,359.192 315.738 M41.010 315.652 C 41.209 316.035,41.700 316.739,42.100 317.217 C 42.598 317.811,42.715 317.866,42.468 317.391 C 42.269 317.009,41.779 316.304,41.378 315.826 C 40.880 315.233,40.764 315.177,41.010 315.652 M43.539 319.259 C 43.984 319.807,44.402 320.209,44.469 320.152 C 44.657 319.990,43.340 318.284,43.017 318.272 C 42.859 318.266,43.094 318.710,43.539 319.259 M45.957 322.346 C 47.443 324.233,48.412 325.023,47.257 323.405 C 46.613 322.504,45.950 321.760,45.783 321.753 C 45.617 321.745,45.695 322.012,45.957 322.346 M353.270 323.339 C 352.372 324.571,352.695 324.645,353.679 323.432 C 354.124 322.884,354.358 322.440,354.200 322.446 C 354.042 322.452,353.624 322.854,353.270 323.339 M49.073 326.128 C 49.535 326.725,49.983 327.150,50.069 327.074 C 50.154 326.998,49.776 326.510,49.229 325.989 L 48.234 325.043 49.073 326.128 M349.264 328.029 C 348.620 328.778,348.229 329.378,348.394 329.362 C 348.560 329.346,349.223 328.720,349.866 327.971 C 350.510 327.222,350.902 326.622,350.736 326.638 C 350.570 326.654,349.908 327.280,349.264 328.029 M52.255 330.087 C 52.494 330.470,52.809 330.783,52.956 330.783 C 53.103 330.783,53.028 330.470,52.789 330.087 C 52.550 329.704,52.234 329.391,52.087 329.391 C 51.940 329.391,52.016 329.704,52.255 330.087 M344.609 333.377 C 343.667 334.513,343.240 335.457,344.087 334.531 C 345.785 332.675,346.169 332.177,345.887 332.199 C 345.710 332.213,345.135 332.743,344.609 333.377 M60.687 339.121 C 61.818 340.264,62.799 341.143,62.867 341.075 C 63.023 340.919,59.168 337.043,58.858 337.043 C 58.733 337.043,59.556 337.979,60.687 339.121 M332.058 345.971 C 331.326 346.642,330.780 347.244,330.845 347.309 C 330.910 347.374,331.571 346.887,332.313 346.226 C 333.055 345.566,333.601 344.963,333.526 344.888 C 333.451 344.813,332.790 345.300,332.058 345.971 M68.541 346.321 C 68.552 346.479,69.021 346.973,69.584 347.418 C 70.148 347.863,70.600 348.098,70.589 347.939 C 70.579 347.781,70.109 347.288,69.546 346.843 C 68.983 346.398,68.530 346.163,68.541 346.321 M73.391 350.460 C 73.391 350.694,73.991 351.279,74.958 351.987 C 75.340 352.266,75.192 351.992,74.631 351.378 C 73.600 350.251,73.391 350.096,73.391 350.460 M326.134 351.178 C 325.586 351.650,325.194 352.093,325.264 352.162 C 325.334 352.232,325.840 351.903,326.388 351.431 C 326.936 350.959,327.327 350.516,327.258 350.447 C 327.188 350.377,326.682 350.706,326.134 351.178 M319.503 356.373 C 319.135 356.642,318.900 356.929,318.982 357.011 C 319.064 357.093,319.433 356.940,319.801 356.671 C 320.170 356.401,320.404 356.114,320.322 356.032 C 320.240 355.950,319.871 356.103,319.503 356.373 M81.043 356.783 C 81.043 356.930,81.357 357.246,81.739 357.484 C 82.122 357.723,82.435 357.799,82.435 357.652 C 82.435 357.505,82.122 357.189,81.739 356.950 C 81.357 356.711,81.043 356.636,81.043 356.783 M315.998 359.001 C 313.893 360.570,313.692 360.945,315.652 359.647 C 317.782 358.237,317.713 358.293,317.534 358.114 C 317.453 358.032,316.761 358.432,315.998 359.001 M310.783 362.683 C 309.826 363.347,308.965 363.975,308.870 364.079 C 308.575 364.399,310.375 363.407,311.478 362.640 C 312.052 362.242,312.587 361.876,312.667 361.827 C 312.746 361.779,312.746 361.680,312.667 361.608 C 312.587 361.536,311.739 362.019,310.783 362.683 M94.609 366.213 C 95.566 366.994,98.087 368.473,98.087 368.255 C 98.087 368.111,95.167 366.209,94.261 365.762 C 93.974 365.621,94.130 365.824,94.609 366.213 M304.261 366.808 C 303.735 367.093,303.304 367.400,303.304 367.489 C 303.304 367.825,303.854 367.615,304.696 366.957 C 305.729 366.148,305.575 366.095,304.261 366.808 M101.565 370.406 C 102.402 371.089,102.957 371.311,102.957 370.965 C 102.957 370.875,102.448 370.552,101.826 370.249 L 100.696 369.697 101.565 370.406 M296.048 371.838 C 294.982 372.726,295.558 372.716,296.696 371.826 C 297.174 371.452,297.409 371.148,297.217 371.150 C 297.026 371.152,296.500 371.461,296.048 371.838 M105.739 372.684 C 105.739 372.780,106.522 373.254,107.478 373.739 C 108.435 374.224,109.217 374.542,109.217 374.447 C 109.217 374.351,108.435 373.876,107.478 373.391 C 106.522 372.907,105.739 372.588,105.739 372.684 M288.000 376.000 C 287.330 376.367,286.908 376.673,287.061 376.681 C 287.429 376.700,289.391 375.680,289.391 375.469 C 289.391 375.242,289.371 375.249,288.000 376.000 M118.261 379.130 C 119.313 379.686,120.330 380.141,120.522 380.141 C 120.713 380.141,120.009 379.686,118.957 379.130 C 117.904 378.575,116.887 378.120,116.696 378.120 C 116.504 378.120,117.209 378.575,118.261 379.130 M278.957 380.174 C 278.287 380.540,277.837 380.847,277.958 380.855 C 278.317 380.879,280.696 379.830,280.696 379.648 C 280.696 379.344,280.196 379.495,278.957 380.174 M131.826 384.696 C 132.113 384.881,132.583 385.033,132.870 385.033 C 133.333 385.033,133.333 384.995,132.870 384.696 C 132.583 384.510,132.113 384.358,131.826 384.358 C 131.362 384.358,131.362 384.396,131.826 384.696 M134.783 385.714 C 135.548 386.082,136.409 386.382,136.696 386.381 C 137.291 386.378,135.570 385.587,134.261 385.261 C 133.783 385.142,134.017 385.346,134.783 385.714 M265.739 385.391 C 265.275 385.691,265.275 385.728,265.739 385.728 C 266.026 385.728,266.496 385.577,266.783 385.391 C 267.246 385.092,267.246 385.054,266.783 385.054 C 266.496 385.054,266.026 385.206,265.739 385.391 M263.652 386.087 C 263.188 386.387,263.188 386.424,263.652 386.424 C 263.939 386.424,264.409 386.272,264.696 386.087 C 265.159 385.787,265.159 385.750,264.696 385.750 C 264.409 385.750,263.939 385.902,263.652 386.087 M137.739 386.783 C 138.026 386.968,138.496 387.120,138.783 387.120 C 139.246 387.120,139.246 387.082,138.783 386.783 C 138.496 386.597,138.026 386.445,137.739 386.445 C 137.275 386.445,137.275 386.483,137.739 386.783 M261.565 386.783 C 261.101 387.082,261.101 387.120,261.565 387.120 C 261.852 387.120,262.322 386.968,262.609 386.783 C 263.072 386.483,263.072 386.445,262.609 386.445 C 262.322 386.445,261.852 386.597,261.565 386.783 M139.826 387.478 C 140.113 387.664,140.583 387.815,140.870 387.815 C 141.333 387.815,141.333 387.778,140.870 387.478 C 140.583 387.293,140.113 387.141,139.826 387.141 C 139.362 387.141,139.362 387.179,139.826 387.478 M259.478 387.478 C 259.014 387.778,259.014 387.815,259.478 387.815 C 259.765 387.815,260.235 387.664,260.522 387.478 C 260.986 387.179,260.986 387.141,260.522 387.141 C 260.235 387.141,259.765 387.293,259.478 387.478 M141.913 388.174 C 142.200 388.359,142.748 388.502,143.130 388.492 L 143.826 388.473 143.130 388.174 C 142.091 387.727,141.222 387.727,141.913 388.174 M257.217 388.174 C 256.779 388.362,256.715 388.473,257.043 388.473 C 257.330 388.473,257.878 388.338,258.261 388.174 C 258.699 387.985,258.764 387.875,258.435 387.875 C 258.148 387.875,257.600 388.010,257.217 388.174 M144.174 388.870 C 144.292 389.061,144.732 389.206,145.151 389.193 C 145.886 389.169,145.888 389.158,145.217 388.870 C 144.260 388.458,143.920 388.458,144.174 388.870 M254.783 388.870 C 254.344 389.058,254.280 389.168,254.609 389.168 C 254.896 389.168,255.443 389.034,255.826 388.870 C 256.265 388.681,256.329 388.571,256.000 388.571 C 255.713 388.571,255.165 388.705,254.783 388.870 M252.348 389.565 C 251.909 389.754,251.845 389.864,252.174 389.864 C 252.461 389.864,253.009 389.730,253.391 389.565 C 253.830 389.377,253.894 389.266,253.565 389.266 C 253.278 389.266,252.730 389.401,252.348 389.565 M148.870 390.245 C 149.157 390.439,149.691 390.600,150.058 390.603 C 150.948 390.610,150.670 390.411,149.391 390.125 C 148.629 389.955,148.489 389.987,148.870 390.245 M249.913 390.261 C 249.475 390.449,249.410 390.560,249.739 390.560 C 250.026 390.560,250.574 390.425,250.957 390.261 C 251.395 390.072,251.459 389.962,251.130 389.962 C 250.843 389.962,250.296 390.096,249.913 390.261 M151.826 390.957 C 152.209 391.121,152.757 391.255,153.043 391.255 C 153.372 391.255,153.308 391.145,152.870 390.957 C 152.487 390.792,151.939 390.658,151.652 390.658 C 151.323 390.658,151.388 390.768,151.826 390.957 M247.130 390.957 L 246.435 391.255 247.130 391.255 C 247.513 391.255,248.139 391.121,248.522 390.957 L 249.217 390.658 248.522 390.658 C 248.139 390.658,247.513 390.792,247.130 390.957 M154.609 391.652 C 154.991 391.817,155.617 391.947,156.000 391.941 C 156.559 391.933,156.525 391.876,155.826 391.652 C 154.637 391.271,153.722 391.271,154.609 391.652 M244.348 391.652 L 243.652 391.951 244.348 391.970 C 244.730 391.981,245.278 391.838,245.565 391.652 C 246.257 391.205,245.388 391.205,244.348 391.652 M157.565 392.348 C 157.852 392.533,158.478 392.672,158.957 392.656 L 159.826 392.626 158.957 392.348 C 157.616 391.918,156.901 391.918,157.565 392.348 M241.565 392.348 L 240.870 392.647 241.565 392.666 C 241.948 392.676,242.496 392.533,242.783 392.348 C 243.474 391.901,242.605 391.901,241.565 392.348 M161.217 393.043 C 161.600 393.208,162.304 393.338,162.783 393.332 L 163.652 393.322 162.783 393.043 C 162.304 392.890,161.600 392.760,161.217 392.755 L 160.522 392.745 161.217 393.043 M238.435 393.043 L 237.391 393.309 238.435 393.345 C 239.009 393.365,239.713 393.229,240.000 393.043 C 240.646 392.626,240.076 392.626,238.435 393.043 M164.870 393.739 C 165.348 393.892,166.130 394.015,166.609 394.011 C 167.390 394.005,167.372 393.978,166.435 393.739 C 164.963 393.365,163.701 393.365,164.870 393.739 M234.609 393.739 L 233.565 394.005 234.609 394.021 C 235.183 394.031,235.965 393.904,236.348 393.739 L 237.043 393.440 236.348 393.457 C 235.965 393.466,235.183 393.593,234.609 393.739 M168.870 394.435 C 169.443 394.581,170.383 394.701,170.957 394.701 C 171.834 394.702,171.778 394.657,170.609 394.415 C 168.847 394.050,167.423 394.067,168.870 394.435 M230.609 394.435 C 229.420 394.685,229.416 394.692,230.435 394.712 C 231.009 394.724,231.791 394.599,232.174 394.435 C 233.010 394.075,232.316 394.075,230.609 394.435 M173.913 395.130 C 174.391 395.284,175.330 395.407,176.000 395.404 L 177.217 395.398 175.826 395.110 C 173.968 394.726,172.692 394.739,173.913 395.130 M225.391 395.130 L 223.826 395.374 225.391 395.391 C 226.252 395.401,227.348 395.284,227.826 395.130 L 228.696 394.852 227.826 394.870 C 227.348 394.879,226.252 394.997,225.391 395.130 M179.652 395.846 C 180.417 396.004,181.670 396.122,182.435 396.107 C 183.798 396.082,183.791 396.075,182.087 395.810 C 179.614 395.425,177.749 395.452,179.652 395.846 M219.130 395.826 L 217.217 396.061 219.130 396.083 C 220.183 396.095,221.435 395.979,221.913 395.826 L 222.783 395.548 221.913 395.570 C 221.435 395.582,220.183 395.697,219.130 395.826 M185.913 396.552 C 186.487 396.682,188.991 396.788,191.478 396.788 C 197.282 396.789,196.418 396.597,189.913 396.439 C 187.139 396.372,185.339 396.423,185.913 396.552 M208.348 396.522 L 203.652 396.727 208.000 396.772 C 210.391 396.797,213.052 396.693,213.913 396.539 C 215.769 396.209,215.527 396.209,208.348 396.522 " stroke="none" fill="#8fc477" fill-rule="evenodd"></path><path id="path4" d="M194.696 3.376 C 195.126 3.459,195.830 3.459,196.261 3.376 C 196.691 3.293,196.339 3.225,195.478 3.225 C 194.617 3.225,194.265 3.293,194.696 3.376 M204.446 3.387 C 205.457 3.458,207.022 3.457,207.925 3.386 C 208.827 3.314,208.000 3.257,206.087 3.257 C 204.174 3.258,203.436 3.317,204.446 3.387 M187.565 3.735 C 188.665 3.804,190.465 3.804,191.565 3.735 C 192.665 3.666,191.765 3.610,189.565 3.610 C 187.365 3.610,186.465 3.666,187.565 3.735 M211.050 3.730 C 211.675 3.808,212.614 3.806,213.137 3.727 C 213.659 3.647,213.148 3.584,212.000 3.586 C 210.852 3.588,210.425 3.653,211.050 3.730 M217.130 4.066 C 217.465 4.153,218.013 4.153,218.348 4.066 C 218.683 3.978,218.409 3.907,217.739 3.907 C 217.070 3.907,216.796 3.978,217.130 4.066 M179.391 4.426 C 180.013 4.503,181.030 4.503,181.652 4.426 C 182.274 4.348,181.765 4.285,180.522 4.285 C 179.278 4.285,178.770 4.348,179.391 4.426 M219.918 4.424 C 220.447 4.503,221.229 4.501,221.657 4.419 C 222.085 4.336,221.652 4.271,220.696 4.273 C 219.739 4.276,219.389 4.344,219.918 4.424 M174.435 4.870 L 172.696 5.108 174.261 5.138 C 175.122 5.155,176.139 5.034,176.522 4.870 C 177.316 4.528,176.923 4.528,174.435 4.870 M224.522 4.873 C 225.188 5.156,228.097 5.351,227.797 5.092 C 227.717 5.023,226.791 4.879,225.739 4.772 C 224.549 4.651,224.089 4.689,224.522 4.873 M168.261 5.811 C 168.691 5.894,169.396 5.894,169.826 5.811 C 170.257 5.728,169.904 5.660,169.043 5.660 C 168.183 5.660,167.830 5.728,168.261 5.811 M231.221 5.811 C 231.654 5.894,232.280 5.891,232.613 5.804 C 232.945 5.717,232.591 5.649,231.826 5.653 C 231.061 5.657,230.789 5.728,231.221 5.811 M164.261 6.501 C 164.596 6.588,165.143 6.588,165.478 6.501 C 165.813 6.413,165.539 6.342,164.870 6.342 C 164.200 6.342,163.926 6.413,164.261 6.501 M161.217 6.957 L 159.826 7.206 161.043 7.250 C 161.713 7.274,162.496 7.142,162.783 6.957 C 163.352 6.589,163.272 6.589,161.217 6.957 M240.696 7.647 C 240.983 7.835,241.596 7.992,242.058 7.995 C 243.174 8.002,242.891 7.804,241.391 7.529 C 240.535 7.372,240.329 7.407,240.696 7.647 M154.957 8.348 C 153.994 8.593,153.980 8.616,154.783 8.649 C 155.261 8.669,155.887 8.533,156.174 8.348 C 156.766 7.965,156.460 7.965,154.957 8.348 M243.826 8.332 C 244.113 8.526,244.648 8.687,245.014 8.690 C 245.904 8.697,245.627 8.498,244.348 8.212 C 243.586 8.042,243.445 8.074,243.826 8.332 M101.739 29.565 C 101.165 29.945,100.852 30.254,101.043 30.251 C 101.392 30.245,103.283 28.890,102.957 28.880 C 102.861 28.877,102.313 29.185,101.739 29.565 M301.913 31.621 C 302.391 32.012,302.939 32.333,303.130 32.335 C 303.503 32.337,302.874 31.856,301.739 31.269 C 301.277 31.031,301.335 31.149,301.913 31.621 M93.908 34.307 C 91.837 35.680,90.651 36.705,92.348 35.657 C 95.196 33.898,96.361 33.043,95.908 33.043 C 95.858 33.043,94.958 33.612,93.908 34.307 M305.391 33.708 C 305.870 34.099,306.417 34.420,306.609 34.422 C 306.981 34.424,306.352 33.943,305.217 33.356 C 304.755 33.118,304.814 33.236,305.391 33.708 M307.478 34.923 C 307.478 35.019,308.183 35.582,309.043 36.174 C 309.904 36.766,310.609 37.173,310.609 37.077 C 310.609 36.981,309.904 36.418,309.043 35.826 C 308.183 35.234,307.478 34.827,307.478 34.923 M87.391 38.643 C 86.578 39.219,85.913 39.767,85.913 39.862 C 85.913 39.956,86.617 39.549,87.478 38.957 C 88.339 38.364,89.043 37.809,89.043 37.722 C 89.043 37.483,88.978 37.520,87.391 38.643 M314.435 39.779 C 314.435 39.874,314.904 40.287,315.478 40.696 C 316.052 41.104,316.522 41.360,316.522 41.265 C 316.522 41.169,316.052 40.756,315.478 40.348 C 314.904 39.939,314.435 39.683,314.435 39.779 M82.087 42.476 C 80.127 43.940,78.376 45.499,79.828 44.486 C 82.909 42.339,84.519 41.038,84.087 41.045 C 84.039 41.046,83.139 41.690,82.087 42.476 M317.217 41.864 C 317.217 41.951,318.038 42.623,319.041 43.359 C 321.706 45.312,322.399 45.739,321.217 44.702 C 319.937 43.577,317.217 41.647,317.217 41.864 M77.043 46.487 C 75.996 47.423,75.918 47.552,76.727 47.012 C 77.688 46.369,78.897 45.197,78.564 45.230 C 78.493 45.238,77.809 45.803,77.043 46.487 M322.783 46.033 C 322.783 46.189,326.746 49.545,329.391 51.629 C 330.406 52.428,330.378 52.374,329.217 51.300 C 327.316 49.541,322.783 45.830,322.783 46.033 M73.891 49.130 L 72.870 50.261 74.000 49.239 C 75.054 48.287,75.290 48.000,75.022 48.000 C 74.962 48.000,74.453 48.509,73.891 49.130 M71.286 51.391 L 70.087 52.696 71.391 51.497 C 72.605 50.381,72.856 50.087,72.590 50.087 C 72.532 50.087,71.945 50.674,71.286 51.391 M67.466 54.870 L 65.565 56.870 67.565 54.968 C 69.423 53.202,69.725 52.870,69.466 52.870 C 69.412 52.870,68.512 53.770,67.466 54.870 M332.696 54.609 C 333.638 55.565,334.487 56.348,334.583 56.348 C 334.678 56.348,333.986 55.565,333.043 54.609 C 332.101 53.652,331.252 52.870,331.157 52.870 C 331.061 52.870,331.754 53.652,332.696 54.609 M338.609 60.174 C 340.707 62.278,342.501 64.000,342.597 64.000 C 342.692 64.000,341.054 62.278,338.957 60.174 C 336.859 58.070,335.064 56.348,334.968 56.348 C 334.873 56.348,336.511 58.070,338.609 60.174 M63.465 58.522 L 61.739 60.348 63.565 58.622 C 65.262 57.018,65.551 56.696,65.291 56.696 C 65.236 56.696,64.415 57.517,63.465 58.522 M54.773 67.565 L 52.348 70.087 54.870 67.662 C 57.212 65.409,57.550 65.043,57.295 65.043 C 57.242 65.043,56.107 66.178,54.773 67.565 M345.565 67.478 C 346.894 68.817,348.060 69.913,348.155 69.913 C 348.251 69.913,347.242 68.817,345.913 67.478 C 344.584 66.139,343.419 65.043,343.323 65.043 C 343.227 65.043,344.236 66.139,345.565 67.478 M49.556 73.304 C 48.430 74.596,47.872 75.339,48.315 74.957 C 49.203 74.190,51.977 70.957,51.746 70.957 C 51.667 70.957,50.681 72.013,49.556 73.304 M355.091 78.900 C 355.477 79.444,356.069 80.109,356.405 80.379 C 356.741 80.649,356.487 80.204,355.841 79.391 C 354.514 77.722,354.022 77.400,355.091 78.900 M43.630 80.581 C 43.095 81.284,42.834 81.748,43.051 81.614 C 43.496 81.339,45.002 79.304,44.761 79.304 C 44.675 79.304,44.166 79.879,43.630 80.581 M361.043 86.783 C 361.636 87.643,362.199 88.348,362.294 88.348 C 362.390 88.348,361.984 87.643,361.391 86.783 C 360.799 85.922,360.236 85.217,360.140 85.217 C 360.045 85.217,360.451 85.922,361.043 86.783 M37.413 89.241 C 36.535 90.497,35.976 91.427,36.171 91.306 C 36.584 91.051,39.407 86.957,39.170 86.957 C 39.082 86.957,38.292 87.984,37.413 89.241 M35.003 92.957 L 34.377 94.087 35.094 93.217 C 35.730 92.446,36.012 91.826,35.727 91.826 C 35.673 91.826,35.347 92.335,35.003 92.957 M296.784 94.899 C 296.120 95.314,244.225 147.130,244.472 147.130 C 244.592 147.130,256.459 135.365,270.843 120.985 L 296.998 94.839 303.542 101.239 C 321.053 118.362,339.126 136.584,339.128 137.118 C 339.129 137.445,338.161 138.776,336.976 140.074 L 334.822 142.435 337.324 140.009 C 338.700 138.675,339.826 137.419,339.826 137.219 C 339.826 137.018,332.506 129.579,323.560 120.688 C 298.544 95.826,297.267 94.596,296.784 94.899 M367.665 96.870 C 367.667 97.061,367.988 97.609,368.379 98.087 C 368.851 98.665,368.969 98.723,368.731 98.261 C 368.144 97.126,367.663 96.497,367.665 96.870 M393.440 163.130 C 393.440 163.417,393.575 163.965,393.739 164.348 C 393.928 164.786,394.038 164.851,394.038 164.522 C 394.038 164.235,393.904 163.687,393.739 163.304 C 393.551 162.866,393.440 162.802,393.440 163.130 M75.554 185.150 C 64.034 196.685,54.609 206.239,54.609 206.381 C 54.609 206.524,64.046 197.192,75.582 185.643 L 96.554 164.646 98.093 166.131 C 98.939 166.947,99.701 167.545,99.787 167.460 C 99.872 167.374,99.874 167.265,99.791 167.217 C 99.707 167.170,98.933 166.466,98.069 165.654 L 96.499 164.178 75.554 185.150 M260.000 217.117 C 230.922 246.236,207.586 269.675,208.143 269.204 C 208.699 268.733,217.621 259.875,227.969 249.519 C 291.945 185.492,313.196 164.174,313.042 164.174 C 312.947 164.174,289.078 187.998,260.000 217.117 M6.112 166.460 C 5.984 166.969,5.946 167.454,6.028 167.536 C 6.110 167.617,6.282 167.268,6.410 166.758 C 6.538 166.248,6.575 165.764,6.493 165.682 C 6.411 165.600,6.240 165.950,6.112 166.460 M100.261 167.802 C 100.468 168.160,137.723 205.452,145.259 212.845 C 149.827 217.328,155.452 222.851,157.758 225.120 L 161.950 229.244 162.801 228.516 C 164.045 227.453,221.823 169.709,221.532 169.820 C 221.397 169.871,207.946 183.195,191.641 199.429 L 161.996 228.945 156.041 223.065 C 152.766 219.831,138.924 206.079,125.281 192.505 C 102.208 169.549,100.023 167.392,100.261 167.802 M4.019 181.411 C 3.888 182.109,3.851 182.749,3.936 182.834 C 4.021 182.919,4.198 182.418,4.329 181.720 C 4.459 181.022,4.497 180.381,4.412 180.296 C 4.327 180.211,4.150 180.713,4.019 181.411 M396.255 184.000 C 396.255 184.670,396.326 184.943,396.414 184.609 C 396.501 184.274,396.501 183.726,396.414 183.391 C 396.326 183.057,396.255 183.330,396.255 184.000 M396.602 186.435 C 396.602 187.104,396.674 187.378,396.762 187.043 C 396.849 186.709,396.849 186.161,396.762 185.826 C 396.674 185.491,396.602 185.765,396.602 186.435 M3.573 190.957 C 3.573 191.817,3.641 192.170,3.724 191.739 C 3.807 191.309,3.807 190.604,3.724 190.174 C 3.641 189.743,3.573 190.096,3.573 190.957 M3.262 196.522 C 3.262 198.722,3.318 199.622,3.387 198.522 C 3.457 197.422,3.457 195.622,3.387 194.522 C 3.318 193.422,3.262 194.322,3.262 196.522 M397.015 200.174 C 397.015 203.809,397.066 205.248,397.129 203.373 C 397.192 201.498,397.191 198.524,397.128 196.765 C 397.065 195.005,397.014 196.539,397.015 200.174 M3.228 205.217 C 3.222 206.270,3.329 208.226,3.467 209.565 C 3.710 211.938,3.717 211.951,3.728 210.087 C 3.734 209.035,3.627 207.078,3.490 205.739 C 3.246 203.366,3.240 203.353,3.228 205.217 M54.986 208.507 C 57.350 211.775,162.087 315.554,162.087 314.629 C 162.087 314.534,161.666 314.236,161.152 313.967 C 160.637 313.697,136.429 289.706,107.355 260.652 C 78.281 231.598,54.715 208.132,54.986 208.507 M396.364 215.494 C 396.231 216.381,396.193 217.178,396.280 217.265 C 396.367 217.352,396.547 216.698,396.680 215.810 C 396.813 214.923,396.851 214.126,396.764 214.039 C 396.677 213.952,396.497 214.607,396.364 215.494 M3.908 217.043 C 3.908 217.522,4.028 218.383,4.174 218.957 C 4.411 219.887,4.439 219.906,4.439 219.130 C 4.439 218.652,4.320 217.791,4.174 217.217 C 3.937 216.287,3.908 216.268,3.908 217.043 M4.581 223.826 C 4.575 224.209,4.705 224.835,4.870 225.217 C 5.250 226.104,5.250 225.189,4.870 224.000 C 4.646 223.301,4.589 223.267,4.581 223.826 M394.957 228.522 C 394.824 229.123,394.789 229.687,394.878 229.776 C 394.966 229.865,395.139 229.437,395.261 228.826 C 395.551 227.376,395.270 227.095,394.957 228.522 M5.277 229.217 C 5.294 230.121,5.842 231.606,5.854 230.783 C 5.860 230.400,5.730 229.774,5.565 229.391 C 5.382 228.965,5.270 228.898,5.277 229.217 M394.286 233.242 C 394.158 233.752,394.120 234.236,394.202 234.318 C 394.284 234.400,394.456 234.050,394.584 233.540 C 394.712 233.031,394.749 232.546,394.667 232.464 C 394.585 232.383,394.414 232.732,394.286 233.242 M6.658 237.217 C 6.658 237.504,6.792 238.052,6.957 238.435 C 7.145 238.873,7.255 238.938,7.255 238.609 C 7.255 238.322,7.121 237.774,6.957 237.391 C 6.768 236.953,6.658 236.889,6.658 237.217 M374.435 291.826 C 374.138 292.400,373.973 292.870,374.069 292.870 C 374.165 292.870,374.486 292.400,374.783 291.826 C 375.079 291.252,375.244 290.783,375.148 290.783 C 375.053 290.783,374.732 291.252,374.435 291.826 M28.487 296.870 C 29.073 298.004,29.555 298.633,29.552 298.261 C 29.551 298.070,29.230 297.522,28.838 297.043 C 28.366 296.466,28.248 296.408,28.487 296.870 M370.273 299.335 C 369.949 299.829,369.743 300.294,369.817 300.367 C 369.890 300.440,370.224 300.036,370.560 299.468 C 371.309 298.199,371.085 298.095,370.273 299.335 M368.186 302.813 C 367.862 303.308,367.656 303.772,367.730 303.846 C 367.803 303.919,368.137 303.514,368.473 302.946 C 369.222 301.677,368.999 301.573,368.186 302.813 M32.187 303.217 C 33.353 305.030,33.739 305.545,33.739 305.287 C 33.739 304.953,31.961 302.261,31.740 302.261 C 31.648 302.261,31.849 302.691,32.187 303.217 M40.348 315.478 C 40.756 316.052,41.169 316.522,41.265 316.522 C 41.360 316.522,41.104 316.052,40.696 315.478 C 40.287 314.904,39.874 314.435,39.779 314.435 C 39.683 314.435,39.939 314.904,40.348 315.478 M359.938 315.391 C 359.112 316.363,357.850 318.261,358.031 318.261 C 358.121 318.261,358.758 317.478,359.445 316.522 C 360.683 314.799,360.936 314.217,359.938 315.391 M44.326 320.810 C 44.862 321.512,45.370 322.087,45.456 322.087 C 45.698 322.087,44.192 320.052,43.747 319.777 C 43.530 319.643,43.790 320.108,44.326 320.810 M356.146 320.609 C 354.095 322.907,353.629 323.478,353.810 323.478 C 353.916 323.478,354.738 322.617,355.637 321.565 C 357.301 319.617,357.700 318.867,356.146 320.609 M45.926 322.669 C 45.933 322.827,46.504 323.583,47.194 324.348 C 48.453 325.743,48.185 325.206,46.704 323.365 C 46.269 322.824,45.919 322.511,45.926 322.669 M352.656 324.783 C 351.549 326.007,350.832 326.957,351.014 326.957 C 351.093 326.957,351.746 326.252,352.465 325.391 C 353.902 323.673,354.030 323.263,352.656 324.783 M48.711 326.173 C 48.720 326.317,49.452 327.217,50.339 328.174 C 52.069 330.039,51.718 329.373,49.835 327.216 C 49.208 326.498,48.703 326.029,48.711 326.173 M348.174 329.913 C 347.329 330.774,346.716 331.478,346.812 331.478 C 346.907 331.478,347.677 330.774,348.522 329.913 C 349.367 329.052,349.980 328.348,349.884 328.348 C 349.788 328.348,349.019 329.052,348.174 329.913 M52.174 330.302 C 52.174 330.484,53.074 331.488,54.174 332.534 L 56.174 334.435 54.261 332.356 C 53.209 331.212,52.309 330.208,52.261 330.124 C 52.213 330.040,52.174 330.120,52.174 330.302 M338.779 340.087 L 332.348 346.609 338.870 340.177 C 342.457 336.640,345.391 333.705,345.391 333.656 C 345.391 333.408,344.754 334.028,338.779 340.087 M57.913 336.696 C 58.660 337.461,59.350 338.087,59.446 338.087 C 59.541 338.087,59.008 337.461,58.261 336.696 C 57.514 335.930,56.824 335.304,56.728 335.304 C 56.633 335.304,57.166 335.930,57.913 336.696 M61.913 340.631 C 61.913 340.690,62.422 341.199,63.043 341.761 L 64.174 342.783 63.152 341.652 C 62.200 340.598,61.913 340.362,61.913 340.631 M66.435 344.870 C 67.667 346.113,68.754 347.130,68.849 347.130 C 68.945 347.130,68.015 346.113,66.783 344.870 C 65.550 343.626,64.464 342.609,64.368 342.609 C 64.272 342.609,65.202 343.626,66.435 344.870 M329.201 349.071 L 326.783 351.359 329.304 349.174 C 331.625 347.163,332.010 346.783,331.723 346.783 C 331.666 346.783,330.532 347.812,329.201 349.071 M72.870 350.609 C 73.617 351.374,74.306 352.000,74.402 352.000 C 74.498 352.000,73.965 351.374,73.217 350.609 C 72.470 349.843,71.781 349.217,71.685 349.217 C 71.589 349.217,72.122 349.843,72.870 350.609 M75.130 352.440 C 75.130 352.517,75.796 353.108,76.609 353.754 C 77.422 354.400,77.866 354.654,77.596 354.318 C 77.088 353.685,75.130 352.194,75.130 352.440 M321.188 355.677 L 319.826 356.920 321.304 355.793 C 322.655 354.763,322.985 354.435,322.667 354.435 C 322.603 354.435,321.938 354.994,321.188 355.677 M78.609 355.222 C 78.609 355.299,79.274 355.890,80.087 356.537 C 80.900 357.183,81.344 357.436,81.074 357.100 C 80.566 356.467,78.609 354.977,78.609 355.222 M316.435 359.142 C 315.526 359.809,314.783 360.431,314.783 360.525 C 314.783 360.618,315.565 360.132,316.522 359.445 C 318.008 358.377,318.542 357.885,318.174 357.922 C 318.126 357.926,317.343 358.476,316.435 359.142 M82.938 358.579 C 83.200 359.002,86.261 361.158,86.261 360.919 C 86.261 360.832,85.462 360.187,84.485 359.485 C 83.509 358.784,82.813 358.376,82.938 358.579 M311.739 362.469 C 310.926 363.045,310.261 363.594,310.261 363.688 C 310.261 363.782,310.965 363.375,311.826 362.783 C 312.687 362.190,313.391 361.635,313.391 361.549 C 313.391 361.309,313.325 361.346,311.739 362.469 M87.971 362.213 C 88.435 362.784,89.739 363.646,89.739 363.382 C 89.739 363.316,89.230 362.889,88.609 362.434 C 87.909 361.922,87.666 361.838,87.971 362.213 M308.609 364.562 C 307.423 365.321,307.039 365.831,308.087 365.255 C 308.885 364.816,310.135 363.850,309.913 363.843 C 309.817 363.840,309.230 364.164,308.609 364.562 M95.652 367.321 C 96.859 368.140,97.546 368.379,96.696 367.683 C 96.217 367.292,95.670 366.971,95.478 366.970 C 95.287 366.968,95.365 367.127,95.652 367.321 M302.609 368.379 C 302.031 368.851,301.973 368.969,302.435 368.731 C 303.569 368.144,304.198 367.663,303.826 367.665 C 303.635 367.667,303.087 367.988,302.609 368.379 M99.130 369.408 C 100.337 370.227,101.024 370.466,100.174 369.770 C 99.696 369.379,99.148 369.058,98.957 369.057 C 98.765 369.055,98.843 369.213,99.130 369.408 M299.130 370.466 C 298.553 370.938,298.494 371.056,298.957 370.818 C 300.091 370.231,300.720 369.750,300.348 369.752 C 300.157 369.754,299.609 370.075,299.130 370.466 M102.609 371.497 C 103.507 372.110,105.739 373.239,105.739 373.080 C 105.739 372.898,102.613 371.128,102.304 371.136 C 102.185 371.139,102.322 371.301,102.609 371.497 M149.246 390.733 C 149.326 390.801,149.939 390.957,150.609 391.080 C 151.465 391.237,151.671 391.202,151.304 390.961 C 150.833 390.652,148.901 390.438,149.246 390.733 M152.377 391.429 C 152.457 391.498,152.991 391.659,153.565 391.788 C 154.327 391.958,154.468 391.926,154.087 391.668 C 153.617 391.350,152.028 391.128,152.377 391.429 M246.261 391.668 C 245.880 391.926,246.021 391.958,246.783 391.788 C 248.062 391.502,248.339 391.303,247.449 391.310 C 247.083 391.313,246.548 391.474,246.261 391.668 M158.348 392.935 C 158.683 393.023,159.230 393.023,159.565 392.935 C 159.900 392.848,159.626 392.776,158.957 392.776 C 158.287 392.776,158.013 392.848,158.348 392.935 M240.348 393.048 C 239.981 393.289,240.187 393.324,241.043 393.167 C 242.544 392.892,242.827 392.694,241.710 392.701 C 241.248 392.704,240.635 392.860,240.348 393.048 M162.116 393.515 C 162.196 393.583,162.809 393.740,163.478 393.863 C 164.335 394.020,164.541 393.985,164.174 393.744 C 163.702 393.435,161.771 393.220,162.116 393.515 M236.870 393.735 C 236.514 393.961,236.792 393.999,237.739 393.854 C 239.458 393.590,239.751 393.390,238.406 393.397 C 237.848 393.400,237.157 393.552,236.870 393.735 M233.826 394.327 C 234.161 394.414,234.709 394.414,235.043 394.327 C 235.378 394.239,235.104 394.168,234.435 394.168 C 233.765 394.168,233.491 394.239,233.826 394.327 M170.352 395.029 C 170.785 395.112,171.411 395.109,171.743 395.022 C 172.076 394.935,171.722 394.866,170.957 394.870 C 170.191 394.874,169.919 394.945,170.352 395.029 M228.696 395.133 C 228.248 395.327,228.620 395.363,229.739 395.233 C 230.696 395.123,231.543 394.976,231.623 394.908 C 231.925 394.647,229.360 394.845,228.696 395.133 M174.986 395.605 C 175.065 395.675,175.991 395.821,177.043 395.930 C 178.278 396.058,178.648 396.025,178.087 395.838 C 177.225 395.550,174.707 395.361,174.986 395.605 M224.440 395.728 C 224.968 395.808,225.751 395.806,226.179 395.723 C 226.606 395.641,226.174 395.575,225.217 395.578 C 224.261 395.580,223.911 395.648,224.440 395.728 M181.657 396.424 C 182.186 396.503,182.968 396.501,183.396 396.419 C 183.824 396.336,183.391 396.271,182.435 396.273 C 181.478 396.276,181.128 396.344,181.657 396.424 M218.006 396.426 C 218.631 396.503,219.571 396.502,220.093 396.422 C 220.616 396.343,220.104 396.280,218.957 396.282 C 217.809 396.284,217.381 396.349,218.006 396.426 M189.130 397.128 C 190.517 397.194,192.787 397.194,194.174 397.128 C 195.561 397.062,194.426 397.008,191.652 397.008 C 188.878 397.008,187.743 397.062,189.130 397.128 M204.087 397.128 C 205.665 397.193,208.248 397.193,209.826 397.128 C 211.404 397.064,210.113 397.011,206.957 397.011 C 203.800 397.011,202.509 397.064,204.087 397.128 " stroke="none" fill="#b4dcac" fill-rule="evenodd"></path></g></svg>