<svg id="svg" version="1.1" xmlns="http://www.w3.org/2000/svg" xmlns:xlink="http://www.w3.org/1999/xlink" width="400" height="400" viewBox="0, 0, 400,400"><g id="svgg"><path id="path0" d="M185.391 122.343 C 179.608 124.576,176.361 128.854,175.702 135.110 C 175.260 139.306,175.240 235.838,175.680 240.022 C 176.431 247.158,180.029 251.733,186.417 253.673 C 189.383 254.573,210.346 254.409,213.177 253.464 C 218.587 251.657,222.451 246.986,223.281 241.252 C 223.655 238.660,223.682 141.557,223.309 135.938 C 222.849 129.001,219.535 124.456,213.345 122.271 C 210.117 121.132,188.383 121.188,185.391 122.343 M194.444 279.851 C 194.158 280.042,193.593 280.200,193.189 280.203 C 192.049 280.211,188.931 281.588,186.632 283.098 C 179.630 287.695,175.347 295.410,175.347 303.425 C 175.347 307.205,175.978 310.176,177.490 313.515 C 180.297 319.716,186.172 324.919,192.361 326.685 C 193.220 326.930,194.403 327.276,194.990 327.454 C 196.406 327.884,202.254 327.868,203.708 327.431 C 204.342 327.240,205.447 326.917,206.163 326.713 C 208.644 326.008,210.503 325.133,212.901 323.543 C 229.943 312.243,225.442 284.981,205.729 280.098 C 203.776 279.614,195.086 279.424,194.444 279.851 " stroke="none" fill="#fbfbfb" fill-rule="evenodd"></path><path id="path1" d="M196.520 35.883 C 196.420 35.985,195.365 36.104,194.175 36.147 C 192.986 36.190,192.093 36.306,192.192 36.404 C 192.290 36.503,191.705 36.803,190.890 37.070 C 184.191 39.270,176.593 44.675,172.228 50.347 C 171.566 51.207,170.929 51.988,170.812 52.083 C 170.513 52.328,165.804 59.395,164.852 61.030 C 163.050 64.122,159.914 69.283,159.738 69.444 C 159.634 69.540,159.353 69.970,159.115 70.399 C 158.876 70.829,158.485 71.532,158.247 71.962 C 158.008 72.391,157.734 72.821,157.639 72.917 C 157.543 73.012,157.270 73.442,157.031 73.872 C 156.793 74.301,156.402 75.004,156.163 75.434 C 155.924 75.864,155.646 76.293,155.545 76.389 C 155.443 76.484,154.667 77.734,153.819 79.167 C 152.972 80.599,152.195 81.849,152.094 81.944 C 151.993 82.040,151.714 82.470,151.476 82.899 C 151.237 83.329,150.846 84.032,150.608 84.462 C 150.369 84.891,150.095 85.321,150.000 85.417 C 149.838 85.579,149.373 86.370,148.470 88.021 C 148.261 88.403,148.012 88.793,147.917 88.889 C 147.821 88.984,147.572 89.375,147.363 89.757 C 146.423 91.475,145.993 92.200,145.818 92.361 C 145.654 92.512,142.910 97.019,141.062 100.174 C 140.726 100.747,140.373 101.293,140.278 101.389 C 139.934 101.732,138.842 103.659,138.653 104.253 C 138.547 104.588,138.323 104.861,138.154 104.861 C 137.985 104.861,137.847 105.028,137.847 105.233 C 137.847 105.437,137.378 106.285,136.806 107.118 C 136.233 107.951,135.764 108.730,135.764 108.849 C 135.764 108.968,135.139 109.986,134.375 111.111 C 133.611 112.236,132.986 113.321,132.986 113.523 C 132.986 113.724,132.848 113.889,132.679 113.889 C 132.511 113.889,132.286 114.162,132.180 114.497 C 131.991 115.091,130.899 117.018,130.556 117.361 C 130.460 117.457,130.187 117.886,129.948 118.316 C 129.709 118.746,129.319 119.449,129.080 119.878 C 128.841 120.308,128.568 120.738,128.472 120.833 C 128.377 120.929,128.075 121.398,127.802 121.875 C 127.528 122.352,126.580 123.915,125.694 125.347 C 124.809 126.780,123.861 128.342,123.587 128.819 C 123.314 129.297,123.012 129.766,122.917 129.861 C 122.821 129.957,122.548 130.386,122.309 130.816 C 122.070 131.246,121.680 131.949,121.441 132.378 C 121.202 132.808,120.929 133.238,120.833 133.333 C 120.671 133.496,120.206 134.287,119.303 135.938 C 119.095 136.319,118.845 136.710,118.750 136.806 C 118.407 137.149,117.314 139.075,117.126 139.670 C 117.020 140.004,116.795 140.278,116.626 140.278 C 116.457 140.278,116.319 140.443,116.319 140.644 C 116.319 140.846,115.694 141.931,114.931 143.056 C 114.167 144.180,113.542 145.266,113.542 145.467 C 113.542 145.669,113.404 145.833,113.235 145.833 C 113.066 145.833,112.842 146.107,112.736 146.441 C 112.547 147.036,111.455 148.962,111.111 149.306 C 110.768 149.649,109.675 151.575,109.487 152.170 C 109.381 152.504,109.156 152.778,108.987 152.778 C 108.819 152.778,108.681 152.945,108.681 153.149 C 108.681 153.354,108.212 154.202,107.639 155.035 C 107.066 155.867,106.597 156.716,106.597 156.920 C 106.597 157.125,106.441 157.292,106.250 157.292 C 106.059 157.292,105.903 157.459,105.903 157.663 C 105.903 157.867,105.434 158.716,104.861 159.549 C 104.288 160.381,103.819 161.230,103.819 161.434 C 103.819 161.638,103.681 161.806,103.513 161.806 C 103.344 161.806,103.119 162.079,103.013 162.413 C 102.825 163.008,101.732 164.934,101.389 165.278 C 101.045 165.621,99.953 167.547,99.764 168.142 C 99.658 168.477,99.434 168.750,99.265 168.750 C 99.096 168.750,98.958 168.917,98.958 169.121 C 98.958 169.326,98.490 170.174,97.917 171.007 C 97.344 171.840,96.875 172.688,96.875 172.892 C 96.875 173.097,96.719 173.264,96.528 173.264 C 96.337 173.264,96.181 173.498,96.181 173.785 C 96.181 174.071,96.043 174.306,95.874 174.306 C 95.705 174.306,95.480 174.579,95.374 174.913 C 95.186 175.508,94.093 177.434,93.750 177.778 C 93.407 178.121,92.314 180.047,92.126 180.642 C 92.020 180.977,91.795 181.250,91.626 181.250 C 91.457 181.250,91.319 181.417,91.319 181.621 C 91.319 181.826,90.851 182.674,90.278 183.507 C 89.705 184.340,89.236 185.121,89.236 185.243 C 89.236 185.365,88.767 186.146,88.194 186.979 C 87.622 187.812,87.153 188.660,87.153 188.865 C 87.153 189.069,86.997 189.236,86.806 189.236 C 86.615 189.236,86.458 189.403,86.458 189.608 C 86.458 189.812,85.990 190.660,85.417 191.493 C 84.844 192.326,84.375 193.161,84.375 193.350 C 84.375 193.538,84.258 193.744,84.115 193.808 C 83.789 193.953,82.661 195.802,82.403 196.615 C 82.297 196.949,82.073 197.222,81.904 197.222 C 81.735 197.222,81.597 197.389,81.597 197.594 C 81.597 197.798,81.128 198.646,80.556 199.479 C 79.983 200.312,79.514 201.093,79.514 201.215 C 79.514 201.337,79.045 202.119,78.472 202.951 C 77.899 203.784,77.431 204.633,77.431 204.837 C 77.431 205.041,77.274 205.208,77.083 205.208 C 76.892 205.208,76.736 205.375,76.736 205.580 C 76.736 205.784,76.267 206.633,75.694 207.465 C 75.122 208.298,74.653 209.133,74.653 209.322 C 74.653 209.510,74.536 209.716,74.392 209.780 C 74.066 209.925,72.939 211.774,72.681 212.587 C 72.575 212.921,72.350 213.194,72.182 213.194 C 72.013 213.194,71.875 213.362,71.875 213.566 C 71.875 213.770,71.406 214.619,70.833 215.451 C 70.260 216.284,69.792 217.065,69.792 217.187 C 69.792 217.310,69.323 218.091,68.750 218.924 C 68.177 219.756,67.708 220.605,67.708 220.809 C 67.708 221.013,67.552 221.181,67.361 221.181 C 67.170 221.181,67.014 221.348,67.014 221.552 C 67.014 221.756,66.545 222.605,65.972 223.437 C 65.399 224.270,64.931 225.049,64.931 225.168 C 64.931 225.288,64.306 226.306,63.542 227.431 C 62.778 228.555,62.153 229.577,62.153 229.702 C 62.153 229.826,61.859 230.342,61.499 230.849 C 61.139 231.356,60.535 232.318,60.156 232.986 C 59.778 233.655,58.645 235.530,57.639 237.153 C 56.633 238.776,55.538 240.573,55.205 241.146 C 54.872 241.719,52.834 245.078,50.676 248.611 C 48.517 252.144,45.284 257.457,43.491 260.417 C 41.697 263.377,40.073 265.756,39.881 265.703 C 39.689 265.651,39.626 265.761,39.742 265.948 C 40.029 266.412,38.052 269.527,37.683 269.191 C 37.521 269.044,37.482 269.087,37.595 269.288 C 37.709 269.488,37.460 270.229,37.043 270.933 C 34.018 276.045,33.141 277.353,32.856 277.177 C 32.678 277.066,32.633 277.140,32.756 277.339 C 33.038 277.796,30.639 281.805,30.161 281.675 C 29.968 281.623,29.904 281.733,30.020 281.920 C 30.306 282.384,28.330 285.499,27.961 285.164 C 27.799 285.016,27.759 285.060,27.873 285.260 C 27.987 285.460,27.738 286.201,27.321 286.906 C 24.295 292.018,23.419 293.325,23.134 293.149 C 22.955 293.039,22.914 293.118,23.043 293.326 C 23.308 293.755,20.734 298.017,20.373 297.746 C 20.244 297.649,20.214 297.671,20.306 297.795 C 20.604 298.196,18.669 301.379,18.266 301.149 C 18.055 301.029,17.992 301.053,18.127 301.203 C 18.382 301.485,17.813 302.637,15.805 305.903 C 15.160 306.953,14.208 308.550,13.690 309.452 C 13.172 310.353,12.616 311.009,12.454 310.909 C 12.293 310.809,12.264 310.996,12.389 311.324 C 12.547 311.734,12.489 311.839,12.203 311.663 C 11.975 311.522,11.831 311.547,11.884 311.718 C 12.056 312.281,9.964 316.295,9.612 316.078 C 9.423 315.961,9.370 316.030,9.495 316.232 C 9.776 316.687,8.181 320.218,7.845 319.882 C 7.711 319.749,7.715 319.934,7.853 320.293 C 8.027 320.745,7.980 320.870,7.702 320.699 C 7.456 320.547,7.366 320.626,7.471 320.902 C 7.710 321.534,6.446 324.727,6.086 324.400 C 5.924 324.252,5.910 324.337,6.055 324.589 C 6.363 325.122,5.983 327.521,5.625 327.300 C 5.491 327.217,5.358 327.643,5.329 328.245 C 5.300 328.847,5.161 331.396,5.020 333.909 C 4.511 342.986,7.688 350.557,14.102 355.556 C 17.308 358.054,18.583 358.880,20.833 359.916 C 21.502 360.223,22.283 360.592,22.569 360.735 C 22.856 360.877,23.822 361.208,24.717 361.469 C 25.612 361.730,26.286 362.038,26.215 362.153 C 26.145 362.267,26.662 362.394,27.366 362.434 C 28.606 362.505,30.784 362.918,33.374 363.572 C 35.104 364.009,362.253 363.996,364.470 363.558 C 365.392 363.377,367.318 363.039,368.750 362.808 C 370.182 362.577,371.519 362.263,371.721 362.110 C 371.923 361.957,372.730 361.787,373.514 361.732 C 374.299 361.677,374.878 361.569,374.802 361.493 C 374.552 361.241,376.506 360.387,376.945 360.556 C 377.180 360.646,377.459 360.496,377.565 360.221 C 377.670 359.947,378.002 359.722,378.303 359.722 C 380.665 359.722,388.989 352.033,390.848 348.134 C 391.170 347.458,391.589 347.000,391.778 347.117 C 391.967 347.234,392.019 347.164,391.894 346.962 C 391.658 346.580,393.501 340.492,393.771 340.762 C 394.084 341.077,393.779 332.366,393.387 329.803 C 393.163 328.338,393.099 326.947,393.245 326.711 C 393.413 326.439,393.367 326.370,393.119 326.523 C 392.656 326.810,392.186 325.263,392.493 324.462 C 392.607 324.165,392.563 324.007,392.394 324.112 C 392.029 324.337,391.556 322.682,391.850 322.206 C 391.963 322.024,391.909 321.875,391.730 321.875 C 391.248 321.875,389.863 318.451,390.146 317.958 C 390.280 317.725,390.270 317.642,390.124 317.773 C 389.782 318.081,387.821 314.212,388.095 313.769 C 388.209 313.585,388.127 313.542,387.914 313.674 C 387.683 313.817,387.254 313.382,386.851 312.599 C 386.480 311.876,385.619 310.364,384.938 309.239 C 384.258 308.113,383.799 307.034,383.918 306.841 C 384.037 306.648,383.983 306.584,383.797 306.699 C 383.611 306.814,382.168 304.768,380.591 302.152 C 379.013 299.536,376.874 296.017,375.836 294.331 C 374.799 292.646,374.054 291.098,374.181 290.892 C 374.309 290.686,374.261 290.612,374.075 290.727 C 373.889 290.841,372.446 288.795,370.869 286.180 C 369.291 283.564,367.152 280.045,366.114 278.359 C 365.077 276.674,364.319 275.146,364.431 274.965 C 364.543 274.784,364.478 274.679,364.286 274.731 C 364.094 274.783,362.811 272.951,361.435 270.660 C 360.059 268.368,357.932 264.888,356.707 262.927 C 355.483 260.966,354.579 259.204,354.697 259.012 C 354.816 258.820,354.755 258.706,354.563 258.759 C 354.273 258.838,351.961 255.293,348.965 250.174 C 348.630 249.601,347.548 247.837,346.562 246.254 C 345.575 244.671,344.863 243.222,344.979 243.033 C 345.095 242.845,345.033 242.734,344.841 242.787 C 344.546 242.867,341.833 238.689,339.155 234.030 C 338.772 233.362,338.008 232.162,337.458 231.363 C 336.908 230.564,336.458 229.812,336.458 229.693 C 336.458 229.573,335.833 228.555,335.069 227.431 C 334.306 226.306,333.681 225.310,333.681 225.218 C 333.681 225.126,332.878 223.750,331.898 222.161 C 330.918 220.571,329.805 218.725,329.426 218.057 C 329.046 217.390,328.286 216.190,327.736 215.391 C 327.186 214.591,326.736 213.837,326.736 213.715 C 326.736 213.593,326.267 212.812,325.694 211.979 C 325.122 211.146,324.653 210.311,324.653 210.123 C 324.653 209.934,324.536 209.728,324.392 209.664 C 324.066 209.519,322.939 207.670,322.681 206.858 C 322.575 206.523,322.350 206.250,322.182 206.250 C 322.013 206.250,321.875 206.083,321.875 205.879 C 321.875 205.674,321.406 204.826,320.833 203.993 C 320.260 203.160,319.792 202.381,319.792 202.262 C 319.792 202.143,319.167 201.125,318.403 200.000 C 317.639 198.875,317.014 197.857,317.014 197.738 C 317.014 197.619,316.545 196.840,315.972 196.007 C 315.399 195.174,314.931 194.326,314.931 194.121 C 314.931 193.917,314.793 193.750,314.624 193.750 C 314.455 193.750,314.230 193.477,314.124 193.142 C 313.936 192.547,312.843 190.621,312.500 190.278 C 312.157 189.934,311.064 188.008,310.876 187.413 C 310.770 187.079,310.545 186.806,310.376 186.806 C 310.207 186.806,310.069 186.638,310.069 186.434 C 310.069 186.230,309.601 185.381,309.028 184.549 C 308.455 183.716,307.986 182.867,307.986 182.663 C 307.986 182.459,307.830 182.292,307.639 182.292 C 307.448 182.292,307.292 182.057,307.292 181.771 C 307.292 181.484,307.154 181.250,306.985 181.250 C 306.816 181.250,306.592 180.977,306.486 180.642 C 306.297 180.047,305.205 178.121,304.861 177.778 C 304.766 177.682,304.492 177.253,304.253 176.823 C 304.015 176.393,303.624 175.690,303.385 175.260 C 303.147 174.831,302.873 174.401,302.778 174.306 C 302.434 173.962,301.342 172.036,301.153 171.441 C 301.047 171.107,300.823 170.833,300.654 170.833 C 300.485 170.833,300.347 170.669,300.347 170.467 C 300.347 170.266,299.722 169.180,298.958 168.056 C 298.194 166.931,297.569 165.846,297.569 165.644 C 297.569 165.443,297.431 165.278,297.263 165.278 C 297.094 165.278,296.869 165.004,296.763 164.670 C 296.575 164.075,295.482 162.149,295.139 161.806 C 294.795 161.462,293.703 159.536,293.514 158.941 C 293.408 158.607,293.184 158.333,293.015 158.333 C 292.846 158.333,292.708 158.166,292.708 157.962 C 292.708 157.758,292.240 156.909,291.667 156.076 C 291.094 155.244,290.625 154.465,290.625 154.345 C 290.625 154.226,290.000 153.208,289.236 152.083 C 288.472 150.958,287.847 149.873,287.847 149.672 C 287.847 149.470,287.709 149.306,287.540 149.306 C 287.372 149.306,287.147 149.032,287.041 148.698 C 286.852 148.103,285.760 146.177,285.417 145.833 C 285.073 145.490,283.981 143.564,283.792 142.969 C 283.686 142.635,283.462 142.361,283.293 142.361 C 283.124 142.361,282.986 142.194,282.986 141.990 C 282.986 141.785,282.517 140.937,281.944 140.104 C 281.372 139.271,280.903 138.493,280.903 138.373 C 280.903 138.254,280.278 137.236,279.514 136.111 C 278.750 134.986,278.125 133.901,278.125 133.700 C 278.125 133.498,277.987 133.333,277.818 133.333 C 277.650 133.333,277.425 133.060,277.319 132.726 C 277.130 132.131,276.038 130.205,275.694 129.861 C 275.351 129.518,274.259 127.591,274.070 126.997 C 273.964 126.662,273.739 126.389,273.571 126.389 C 273.402 126.389,273.264 126.238,273.264 126.053 C 273.264 125.773,271.147 122.236,270.233 120.989 C 269.974 120.636,269.570 119.948,268.663 118.316 C 268.424 117.886,268.151 117.457,268.056 117.361 C 267.712 117.018,266.620 115.091,266.431 114.497 C 266.325 114.162,266.100 113.889,265.932 113.889 C 265.763 113.889,265.625 113.718,265.625 113.508 C 265.625 113.299,265.331 112.713,264.971 112.206 C 264.612 111.699,264.007 110.738,263.629 110.069 C 263.250 109.401,262.166 107.604,261.221 106.076 C 260.275 104.549,259.277 102.908,259.004 102.431 C 258.731 101.953,258.429 101.484,258.333 101.389 C 258.238 101.293,257.989 100.903,257.780 100.521 C 256.877 98.870,256.412 98.079,256.250 97.917 C 256.155 97.821,255.851 97.352,255.576 96.875 C 255.300 96.398,253.885 94.054,252.431 91.667 C 250.976 89.280,249.561 86.936,249.285 86.458 C 249.010 85.981,248.707 85.512,248.611 85.417 C 248.516 85.321,248.242 84.891,248.003 84.462 C 247.765 84.032,247.374 83.329,247.135 82.899 C 246.897 82.470,246.623 82.040,246.528 81.944 C 246.432 81.849,246.129 81.380,245.854 80.903 C 245.578 80.425,244.163 78.082,242.708 75.694 C 241.254 73.307,239.838 70.964,239.563 70.486 C 239.288 70.009,238.984 69.540,238.889 69.444 C 238.793 69.349,238.490 68.880,238.215 68.403 C 237.660 67.440,233.075 59.929,231.221 56.944 C 230.569 55.894,229.918 54.983,229.774 54.919 C 229.631 54.855,229.514 54.611,229.514 54.376 C 229.514 52.619,219.219 42.545,215.104 40.275 C 214.340 39.854,213.559 39.394,213.368 39.254 C 210.805 37.366,197.640 34.732,196.520 35.883 M215.144 122.380 C 220.851 125.244,223.570 129.539,224.033 136.426 C 224.557 144.211,224.211 242.362,223.655 243.576 C 220.024 251.506,216.273 254.212,207.986 254.879 C 203.155 255.268,187.525 254.771,185.764 254.173 C 180.656 252.439,176.973 248.630,175.436 243.492 C 174.704 241.044,174.289 141.201,174.986 135.142 C 175.660 129.280,178.607 124.800,183.243 122.588 C 184.152 122.154,185.130 121.669,185.417 121.510 C 185.703 121.351,191.971 121.212,199.346 121.201 L 212.754 121.181 215.144 122.380 M203.125 279.064 C 204.366 279.160,205.530 279.379,205.712 279.550 C 205.893 279.721,206.470 279.861,206.993 279.861 C 207.517 279.861,208.042 280.017,208.160 280.208 C 208.278 280.399,208.678 280.556,209.048 280.556 C 209.419 280.556,209.722 280.712,209.722 280.903 C 209.722 281.094,210.035 281.250,210.417 281.250 C 210.799 281.250,211.111 281.406,211.111 281.597 C 211.111 281.788,211.276 281.944,211.477 281.944 C 212.137 281.944,215.767 284.623,217.199 286.165 C 220.121 289.313,221.036 290.778,222.912 295.313 C 226.427 303.808,222.934 316.747,215.646 322.222 C 215.011 322.700,214.105 323.421,213.634 323.826 C 212.554 324.753,210.159 326.042,209.516 326.042 C 209.247 326.042,209.028 326.198,209.028 326.389 C 209.028 326.580,208.646 326.736,208.180 326.736 C 207.714 326.736,207.236 326.892,207.118 327.083 C 207.000 327.274,206.375 327.431,205.729 327.431 C 205.083 327.431,204.458 327.587,204.340 327.778 C 204.213 327.983,202.087 328.125,199.132 328.125 C 196.177 328.125,194.051 327.983,193.924 327.778 C 193.806 327.587,193.249 327.431,192.688 327.431 C 192.126 327.431,191.667 327.274,191.667 327.083 C 191.667 326.892,191.285 326.736,190.819 326.736 C 190.353 326.736,189.875 326.580,189.757 326.389 C 189.639 326.198,189.239 326.042,188.868 326.042 C 188.498 326.042,188.194 325.885,188.194 325.694 C 188.194 325.503,188.027 325.347,187.823 325.347 C 187.219 325.347,184.330 323.289,182.516 321.566 C 173.584 313.082,172.024 299.839,178.783 289.872 C 180.071 287.972,185.253 282.964,186.632 282.285 C 187.205 282.003,187.752 281.694,187.847 281.598 C 188.314 281.129,189.650 280.556,190.273 280.556 C 190.658 280.556,190.972 280.399,190.972 280.208 C 190.972 280.017,191.354 279.861,191.820 279.861 C 192.286 279.861,192.764 279.705,192.882 279.514 C 193.000 279.323,194.064 279.148,195.246 279.126 C 196.428 279.103,197.865 278.962,198.438 278.812 C 199.010 278.662,199.792 278.618,200.174 278.714 C 200.556 278.810,201.884 278.967,203.125 279.064 " stroke="none" fill="#bc443c" fill-rule="evenodd"></path><path id="path2" d="M186.632 121.519 C 186.250 121.679,185.425 122.002,184.798 122.237 C 184.171 122.471,183.712 122.717,183.779 122.783 C 183.845 122.850,184.746 122.594,185.781 122.216 C 188.762 121.126,210.223 121.169,213.345 122.271 C 216.005 123.210,217.879 124.489,219.920 126.759 C 220.804 127.743,221.528 128.408,221.528 128.238 C 221.528 127.040,216.199 122.926,213.345 121.922 C 211.111 121.136,188.364 120.793,186.632 121.519 M181.393 124.100 C 180.426 124.751,179.363 125.728,179.030 126.270 C 178.443 127.229,178.455 127.225,179.468 126.148 C 180.041 125.539,181.145 124.620,181.922 124.106 C 183.152 123.291,183.568 122.917,183.242 122.917 C 183.192 122.917,182.360 123.449,181.393 124.100 M177.336 128.733 C 176.195 130.594,175.688 131.863,175.735 132.742 C 175.771 133.440,175.788 133.446,175.928 132.813 C 176.199 131.582,176.847 130.067,177.674 128.733 C 178.118 128.016,178.403 127.431,178.307 127.431 C 178.212 127.431,177.775 128.016,177.336 128.733 M223.187 134.660 C 223.346 138.616,223.511 139.107,223.559 135.764 C 223.582 134.141,223.483 132.628,223.340 132.403 C 223.197 132.177,223.128 133.193,223.187 134.660 M175.226 136.024 C 174.933 139.127,174.995 237.867,175.291 240.104 C 175.417 241.059,175.521 217.504,175.521 187.760 C 175.521 158.016,175.504 133.681,175.484 133.681 C 175.464 133.681,175.348 134.735,175.226 136.024 M223.780 189.757 C 223.780 217.257,223.821 228.456,223.871 214.643 C 223.922 200.830,223.922 178.330,223.871 164.643 C 223.821 150.956,223.780 162.257,223.780 189.757 M223.322 241.031 C 223.290 241.731,223.174 242.591,223.064 242.940 C 222.876 243.539,222.887 243.541,223.258 242.963 C 223.475 242.625,223.591 241.766,223.516 241.053 L 223.381 239.757 223.322 241.031 M175.722 242.510 C 175.568 246.267,182.582 253.955,186.013 253.790 C 186.428 253.770,186.346 253.673,185.764 253.495 C 181.667 252.244,177.603 248.159,176.414 244.097 C 176.163 243.238,175.911 242.378,175.853 242.188 C 175.796 241.997,175.737 242.142,175.722 242.510 M221.919 245.686 C 219.585 251.019,215.139 253.761,208.160 254.170 L 204.340 254.394 207.668 254.454 C 212.997 254.550,216.498 253.089,219.838 249.374 C 221.433 247.600,223.084 244.756,222.869 244.154 C 222.800 243.960,222.372 244.650,221.919 245.686 M187.271 254.248 C 187.492 254.388,191.033 254.476,195.139 254.443 C 203.234 254.377,202.279 254.229,192.827 254.084 C 189.550 254.034,187.050 254.108,187.271 254.248 M197.822 279.417 C 198.439 279.494,199.532 279.495,200.253 279.420 C 200.973 279.345,200.469 279.282,199.132 279.281 C 197.795 279.279,197.206 279.341,197.822 279.417 M193.056 279.861 L 192.188 280.139 193.056 280.168 C 193.533 280.185,194.158 280.046,194.444 279.861 C 195.108 279.433,194.394 279.433,193.056 279.861 M204.514 279.861 C 204.800 280.046,205.269 280.198,205.556 280.198 C 206.019 280.198,206.019 280.160,205.556 279.861 C 205.269 279.676,204.800 279.525,204.514 279.525 C 204.051 279.525,204.051 279.562,204.514 279.861 M186.236 282.959 C 185.636 283.325,185.032 283.807,184.894 284.031 C 184.756 284.255,185.285 284.012,186.071 283.492 C 187.308 282.674,187.739 282.288,187.413 282.293 C 187.365 282.294,186.836 282.594,186.236 282.959 M211.458 282.394 C 211.458 282.475,212.357 283.133,213.455 283.856 C 214.553 284.580,215.182 284.868,214.852 284.495 C 214.272 283.839,211.458 282.097,211.458 282.394 M181.732 286.885 C 179.548 289.185,176.389 294.271,176.389 295.488 C 176.389 295.717,177.120 294.443,178.014 292.658 C 179.210 290.268,180.260 288.778,181.998 287.001 C 183.296 285.675,184.306 284.538,184.244 284.475 C 184.181 284.412,183.050 285.497,181.732 286.885 M215.625 285.417 C 215.625 285.608,215.753 285.764,215.910 285.764 C 216.928 285.764,220.946 292.023,222.263 295.660 C 222.609 296.615,222.897 297.106,222.904 296.753 C 222.929 295.456,220.127 290.208,218.056 287.674 C 215.910 285.048,215.625 284.783,215.625 285.417 M175.911 296.715 C 175.792 297.025,175.708 297.540,175.724 297.858 C 175.741 298.177,175.892 297.977,176.060 297.413 C 176.387 296.317,176.272 295.775,175.911 296.715 M223.166 299.363 C 223.376 301.907,223.552 302.253,223.578 300.174 C 223.591 299.219,223.468 298.229,223.307 297.974 C 223.135 297.703,223.076 298.279,223.166 299.363 M175.219 299.392 C 174.879 300.661,174.971 306.971,175.347 308.222 C 175.538 308.856,175.864 309.961,176.070 310.677 C 176.503 312.176,177.394 314.236,177.610 314.236 C 177.779 314.236,177.431 313.183,177.092 312.674 C 176.853 312.314,176.383 310.735,175.677 307.921 C 175.438 306.965,175.323 304.707,175.400 302.452 C 175.542 298.319,175.535 298.211,175.219 299.392 M223.715 303.819 C 223.715 304.870,223.780 305.299,223.860 304.774 C 223.939 304.249,223.939 303.390,223.860 302.865 C 223.780 302.339,223.715 302.769,223.715 303.819 M223.322 307.350 C 223.290 308.051,223.174 308.910,223.064 309.260 C 222.876 309.859,222.887 309.860,223.258 309.282 C 223.475 308.945,223.591 308.085,223.516 307.372 L 223.381 306.076 223.322 307.350 M222.610 310.494 C 222.588 310.822,222.187 311.955,221.720 313.011 C 221.254 314.067,220.950 314.931,221.045 314.931 C 221.401 314.931,222.944 310.996,222.800 310.456 C 222.670 309.972,222.645 309.977,222.610 310.494 M177.778 314.689 C 177.778 315.994,182.485 321.488,185.243 323.401 C 186.764 324.456,186.167 323.876,183.168 321.383 C 182.268 320.635,180.687 318.761,179.655 317.219 C 178.622 315.677,177.778 314.539,177.778 314.689 M219.680 316.831 C 219.153 317.665,218.121 318.985,217.387 319.764 C 216.653 320.543,216.160 321.181,216.292 321.181 C 216.910 321.181,221.117 315.793,220.770 315.446 C 220.698 315.374,220.208 315.998,219.680 316.831 M213.715 322.944 C 212.760 323.692,211.471 324.546,210.851 324.842 C 209.658 325.411,209.302 325.827,210.330 325.450 C 211.215 325.126,214.707 322.737,215.247 322.085 C 215.919 321.276,215.657 321.423,213.715 322.944 M187.406 324.805 C 188.268 325.441,190.625 326.489,190.625 326.236 C 190.625 326.147,189.883 325.723,188.976 325.294 C 186.662 324.201,186.533 324.160,187.406 324.805 M193.432 327.208 C 193.511 327.277,194.045 327.438,194.618 327.566 C 195.379 327.736,195.519 327.704,195.139 327.446 C 194.670 327.129,193.083 326.908,193.432 327.208 M203.472 327.446 C 203.092 327.704,203.232 327.736,203.993 327.566 C 205.270 327.280,205.547 327.082,204.659 327.089 C 204.293 327.092,203.759 327.253,203.472 327.446 M197.656 328.031 C 198.372 328.106,199.544 328.106,200.260 328.031 C 200.977 327.956,200.391 327.895,198.958 327.895 C 197.526 327.895,196.940 327.956,197.656 328.031 " stroke="none" fill="#dca49c" fill-rule="evenodd"></path><path id="path3" d="M175.855 45.920 L 174.132 47.743 175.955 46.020 C 176.957 45.072,177.778 44.252,177.778 44.197 C 177.778 43.938,177.456 44.226,175.855 45.920 M224.653 48.090 C 225.301 48.759,225.909 49.306,226.004 49.306 C 226.100 49.306,225.648 48.759,225.000 48.090 C 224.352 47.422,223.744 46.875,223.648 46.875 C 223.553 46.875,224.005 47.422,224.653 48.090 M232.257 58.160 C 232.842 59.292,233.323 59.920,233.320 59.549 C 233.319 59.358,232.998 58.811,232.608 58.333 C 232.136 57.757,232.018 57.698,232.257 58.160 M242.027 74.132 C 242.028 74.323,242.349 74.870,242.739 75.347 C 243.211 75.924,243.329 75.982,243.090 75.521 C 242.505 74.388,242.024 73.760,242.027 74.132 M251.749 90.104 C 251.750 90.295,252.071 90.842,252.462 91.319 C 252.933 91.896,253.051 91.954,252.813 91.493 C 252.227 90.360,251.747 89.733,251.749 90.104 M134.247 110.503 L 133.623 111.632 134.338 110.764 C 134.973 109.994,135.255 109.375,134.971 109.375 C 134.916 109.375,134.591 109.883,134.247 110.503 M271.194 122.049 C 271.195 122.240,271.516 122.786,271.906 123.264 C 272.378 123.840,272.496 123.899,272.257 123.438 C 271.672 122.305,271.191 121.677,271.194 122.049 M175.088 135.590 C 175.091 136.354,175.163 136.626,175.246 136.194 C 175.329 135.762,175.325 135.137,175.239 134.805 C 175.152 134.473,175.084 134.826,175.088 135.590 M223.692 138.889 C 223.692 139.557,223.763 139.831,223.850 139.497 C 223.938 139.162,223.938 138.615,223.850 138.281 C 223.763 137.947,223.692 138.220,223.692 138.889 M175.081 239.931 C 175.081 240.599,175.152 240.872,175.239 240.538 C 175.327 240.204,175.327 239.657,175.239 239.323 C 175.152 238.989,175.081 239.262,175.081 239.931 M179.688 250.347 C 180.433 251.111,181.122 251.736,181.217 251.736 C 181.313 251.736,180.781 251.111,180.035 250.347 C 179.289 249.583,178.600 248.958,178.505 248.958 C 178.409 248.958,178.942 249.583,179.688 250.347 M200.786 254.763 C 201.314 254.843,202.095 254.841,202.522 254.758 C 202.949 254.676,202.517 254.611,201.563 254.613 C 200.608 254.616,200.258 254.683,200.786 254.763 M195.056 279.412 C 195.488 279.495,196.113 279.492,196.445 279.405 C 196.777 279.318,196.424 279.250,195.660 279.254 C 194.896 279.258,194.624 279.329,195.056 279.412 M202.175 279.416 C 202.703 279.496,203.484 279.494,203.911 279.411 C 204.338 279.329,203.906 279.263,202.951 279.266 C 201.997 279.269,201.647 279.336,202.175 279.416 M201.823 328.017 C 202.157 328.104,202.704 328.104,203.038 328.017 C 203.372 327.930,203.099 327.858,202.431 327.858 C 201.762 327.858,201.489 327.930,201.823 328.017 M36.892 364.128 C 37.227 364.216,37.773 364.216,38.108 364.128 C 38.442 364.041,38.168 363.969,37.500 363.969 C 36.832 363.969,36.558 364.041,36.892 364.128 M359.809 364.128 C 360.143 364.216,360.690 364.216,361.024 364.128 C 361.359 364.041,361.085 363.969,360.417 363.969 C 359.748 363.969,359.475 364.041,359.809 364.128 M40.365 364.475 C 40.699 364.563,41.246 364.563,41.580 364.475 C 41.914 364.388,41.641 364.317,40.972 364.317 C 40.304 364.317,40.030 364.388,40.365 364.475 " stroke="none" fill="#d28787" fill-rule="evenodd"></path><path id="path4" d="M195.557 35.712 C 195.118 35.836,196.759 35.946,199.203 35.956 C 201.646 35.966,203.177 35.867,202.604 35.737 C 201.273 35.433,196.600 35.416,195.557 35.712 M205.729 36.458 C 206.767 36.904,207.635 36.904,206.944 36.458 C 206.658 36.273,206.111 36.130,205.729 36.141 L 205.035 36.160 205.729 36.458 M217.830 41.929 C 217.965 42.149,218.569 42.679,219.170 43.108 C 219.772 43.536,220.153 43.707,220.017 43.487 C 219.882 43.268,219.278 42.737,218.677 42.309 C 218.075 41.881,217.694 41.710,217.830 41.929 M171.862 50.363 C 171.250 51.136,170.808 51.822,170.878 51.888 C 170.949 51.953,171.520 51.321,172.146 50.483 C 173.578 48.568,173.358 48.475,171.862 50.363 M226.865 50.795 C 227.795 51.886,228.625 52.778,228.708 52.778 C 229.084 52.778,226.458 49.603,225.690 49.131 C 225.406 48.956,225.935 49.705,226.865 50.795 M230.663 56.076 C 230.957 56.649,231.457 57.431,231.774 57.813 C 232.092 58.194,232.000 57.882,231.572 57.118 C 230.625 55.433,229.916 54.620,230.663 56.076 M234.135 61.632 C 234.429 62.205,234.929 62.986,235.246 63.368 C 235.564 63.750,235.473 63.437,235.044 62.674 C 234.097 60.988,233.389 60.176,234.135 61.632 M162.111 65.017 C 161.884 65.447,161.471 66.189,161.194 66.667 C 160.711 67.499,160.714 67.506,161.275 66.840 C 161.967 66.017,162.938 64.236,162.695 64.236 C 162.601 64.236,162.338 64.588,162.111 65.017 M236.219 65.104 C 236.512 65.677,237.012 66.458,237.330 66.840 C 237.647 67.222,237.556 66.910,237.127 66.146 C 236.181 64.460,235.472 63.648,236.219 65.104 M243.857 77.604 C 244.151 78.177,244.651 78.958,244.969 79.340 C 245.286 79.722,245.195 79.410,244.766 78.646 C 243.820 76.960,243.111 76.148,243.857 77.604 M253.580 93.576 C 253.873 94.149,254.373 94.931,254.691 95.313 C 255.008 95.694,254.917 95.382,254.488 94.618 C 253.542 92.933,252.833 92.120,253.580 93.576 M142.667 96.962 C 142.439 97.391,142.027 98.134,141.750 98.611 C 141.267 99.444,141.270 99.451,141.830 98.785 C 142.522 97.962,143.494 96.181,143.250 96.181 C 143.157 96.181,142.894 96.532,142.667 96.962 M263.555 109.896 C 263.556 110.087,263.877 110.634,264.267 111.111 C 264.739 111.688,264.857 111.746,264.618 111.285 C 264.033 110.152,263.552 109.524,263.555 109.896 M179.211 125.513 C 178.423 126.368,177.778 127.175,177.778 127.307 C 177.778 127.439,177.829 127.481,177.892 127.402 C 177.955 127.322,178.678 126.515,179.499 125.608 C 180.320 124.701,180.913 123.958,180.818 123.958 C 180.722 123.958,179.999 124.658,179.211 125.513 M175.390 132.118 C 175.361 132.500,175.257 133.203,175.159 133.681 L 174.980 134.549 175.352 133.697 C 175.557 133.228,175.661 132.525,175.583 132.134 C 175.445 131.442,175.440 131.442,175.390 132.118 M223.730 135.243 C 223.731 136.771,223.792 137.353,223.866 136.536 C 223.939 135.719,223.938 134.469,223.864 133.758 C 223.789 133.047,223.729 133.715,223.730 135.243 M174.822 187.674 C 174.822 215.937,174.863 227.449,174.913 213.254 C 174.963 199.059,174.963 175.934,174.913 161.865 C 174.863 147.796,174.822 159.410,174.822 187.674 M224.044 188.404 C 223.997 216.115,223.886 239.787,223.798 241.008 L 223.638 243.229 223.971 241.146 C 224.177 239.863,224.271 219.640,224.217 188.542 L 224.130 138.021 224.044 188.404 M290.638 154.340 C 290.639 154.531,290.960 155.078,291.350 155.556 C 291.822 156.132,291.940 156.190,291.702 155.729 C 291.116 154.597,290.635 153.969,290.638 154.340 M319.799 202.344 C 319.804 202.487,320.126 202.995,320.515 203.472 L 321.222 204.340 320.672 203.212 C 320.148 202.139,319.783 201.775,319.799 202.344 M329.522 218.316 C 329.526 218.459,329.848 218.967,330.237 219.444 L 330.945 220.313 330.394 219.184 C 329.871 218.112,329.505 217.748,329.522 218.316 M332.106 222.483 C 332.409 223.103,332.731 223.611,332.821 223.611 C 333.167 223.611,332.944 223.058,332.263 222.222 L 331.555 221.354 332.106 222.483 M66.035 222.743 C 65.818 223.220,65.697 223.611,65.766 223.611 C 65.836 223.611,66.148 223.220,66.461 222.743 C 66.774 222.266,66.895 221.875,66.730 221.875 C 66.566 221.875,66.253 222.266,66.035 222.743 M64.082 225.887 C 63.754 226.387,63.556 226.866,63.640 226.951 C 63.725 227.036,64.063 226.696,64.390 226.196 C 64.718 225.696,64.917 225.218,64.832 225.133 C 64.747 225.048,64.409 225.387,64.082 225.887 M333.696 225.174 C 333.696 225.365,334.002 225.911,334.375 226.389 C 334.748 226.866,335.054 227.101,335.054 226.910 C 335.054 226.719,334.748 226.172,334.375 225.694 C 334.002 225.217,333.696 224.983,333.696 225.174 M339.244 234.288 C 339.248 234.431,339.570 234.939,339.959 235.417 L 340.667 236.285 340.116 235.156 C 339.593 234.084,339.227 233.720,339.244 234.288 M341.828 238.455 C 342.131 239.076,342.453 239.583,342.544 239.583 C 342.889 239.583,342.667 239.030,341.985 238.194 L 341.278 237.326 341.828 238.455 M56.313 238.715 C 56.096 239.193,55.974 239.583,56.044 239.583 C 56.113 239.583,56.426 239.193,56.739 238.715 C 57.052 238.238,57.173 237.847,57.008 237.847 C 56.843 237.847,56.531 238.238,56.313 238.715 M54.360 241.860 C 54.032 242.360,53.833 242.838,53.918 242.923 C 54.003 243.008,54.341 242.668,54.668 242.168 C 54.996 241.668,55.194 241.190,55.110 241.105 C 55.025 241.020,54.687 241.360,54.360 241.860 M175.228 242.188 C 175.344 242.951,175.497 243.641,175.567 243.721 C 175.830 244.019,175.633 242.160,175.331 241.493 C 175.112 241.009,175.080 241.220,175.228 242.188 M343.912 241.927 C 344.214 242.548,344.536 243.056,344.627 243.056 C 344.972 243.056,344.750 242.502,344.069 241.667 L 343.361 240.799 343.912 241.927 M223.042 244.010 C 222.619 245.298,221.883 246.767,220.997 248.096 C 220.405 248.983,220.321 249.230,220.761 248.785 C 221.560 247.977,223.054 245.317,223.345 244.184 C 223.581 243.266,223.334 243.124,223.042 244.010 M52.269 245.343 C 51.945 245.837,51.760 246.320,51.856 246.417 C 51.953 246.513,52.282 246.109,52.587 245.518 C 53.263 244.213,53.077 244.110,52.269 245.343 M345.798 244.965 C 346.384 246.098,346.865 246.726,346.862 246.354 C 346.861 246.163,346.540 245.616,346.150 245.139 C 345.678 244.562,345.560 244.504,345.798 244.965 M347.428 247.743 C 347.741 248.220,348.053 248.611,348.123 248.611 C 348.192 248.611,348.071 248.220,347.853 247.743 C 347.636 247.266,347.323 246.875,347.158 246.875 C 346.994 246.875,347.115 247.266,347.428 247.743 M50.186 248.815 C 49.862 249.309,49.676 249.792,49.773 249.889 C 49.870 249.985,50.199 249.581,50.504 248.991 C 51.179 247.685,50.993 247.582,50.186 248.815 M179.514 250.521 C 180.162 251.189,180.770 251.736,180.865 251.736 C 180.961 251.736,180.509 251.189,179.861 250.521 C 179.213 249.852,178.605 249.306,178.510 249.306 C 178.414 249.306,178.866 249.852,179.514 250.521 M348.974 250.174 C 348.974 250.365,349.279 250.911,349.653 251.389 C 350.026 251.866,350.332 252.101,350.332 251.910 C 350.332 251.719,350.026 251.172,349.653 250.694 C 349.279 250.217,348.974 249.983,348.974 250.174 M48.102 252.287 C 47.779 252.781,47.574 253.245,47.647 253.318 C 47.720 253.391,48.054 252.987,48.389 252.420 C 49.137 251.153,48.913 251.049,48.102 252.287 M351.551 254.427 C 351.853 255.048,352.175 255.556,352.266 255.556 C 352.611 255.556,352.389 255.002,351.707 254.167 L 351.000 253.299 351.551 254.427 M46.591 254.688 C 46.373 255.165,46.252 255.556,46.322 255.556 C 46.391 255.556,46.704 255.165,47.017 254.688 C 47.330 254.210,47.451 253.819,47.286 253.819 C 47.121 253.819,46.808 254.210,46.591 254.688 M196.293 254.898 C 200.651 255.046,205.730 255.059,207.578 254.927 C 209.783 254.770,207.060 254.678,199.653 254.659 L 188.368 254.630 196.293 254.898 M44.630 257.843 C 44.307 258.337,44.121 258.820,44.217 258.917 C 44.314 259.013,44.643 258.609,44.949 258.018 C 45.624 256.713,45.438 256.610,44.630 257.843 M353.634 257.899 C 353.937 258.520,354.259 259.028,354.349 259.028 C 354.694 259.028,354.472 258.475,353.791 257.639 L 353.083 256.771 353.634 257.899 M42.547 261.315 C 42.223 261.809,42.037 262.292,42.134 262.389 C 42.231 262.485,42.560 262.081,42.865 261.491 C 43.540 260.185,43.355 260.082,42.547 261.315 M355.960 261.662 C 357.180 263.797,358.201 265.107,357.290 263.368 C 356.890 262.604,356.245 261.589,355.856 261.111 C 355.273 260.394,355.291 260.490,355.960 261.662 M40.464 264.787 C 40.140 265.281,39.954 265.764,40.051 265.861 C 40.147 265.958,40.476 265.553,40.782 264.963 C 41.457 263.657,41.271 263.555,40.464 264.787 M359.189 266.927 C 359.492 267.548,359.814 268.056,359.905 268.056 C 360.250 268.056,360.028 267.502,359.346 266.667 L 358.639 265.799 359.189 266.927 M37.715 269.358 C 37.041 270.456,36.325 271.543,36.126 271.774 C 35.678 272.292,35.652 272.679,36.083 272.413 C 36.259 272.304,36.775 271.553,37.229 270.743 C 37.684 269.933,38.340 268.841,38.686 268.316 C 39.033 267.791,39.232 267.361,39.129 267.361 C 39.026 267.361,38.390 268.260,37.715 269.358 M361.301 270.518 C 361.607 271.109,361.922 271.527,362.001 271.448 C 362.212 271.237,361.332 269.450,361.015 269.447 C 360.867 269.446,360.996 269.928,361.301 270.518 M34.908 273.815 C 34.584 274.309,34.399 274.792,34.495 274.889 C 34.592 274.985,34.921 274.581,35.226 273.991 C 35.902 272.685,35.716 272.582,34.908 273.815 M363.356 273.872 C 363.659 274.492,363.981 275.000,364.071 275.000 C 364.417 275.000,364.194 274.447,363.513 273.611 L 362.805 272.743 363.356 273.872 M32.825 277.287 C 32.501 277.781,32.315 278.264,32.412 278.361 C 32.509 278.458,32.838 278.053,33.143 277.463 C 33.818 276.157,33.632 276.055,32.825 277.287 M365.484 277.257 C 365.828 277.830,366.482 278.961,366.937 279.771 C 367.775 281.263,368.403 281.918,368.403 281.299 C 368.403 281.113,368.280 280.909,368.129 280.845 C 367.979 280.781,367.444 280.026,366.941 279.167 C 366.437 278.307,365.762 277.292,365.441 276.910 C 364.967 276.346,364.975 276.412,365.484 277.257 M198.438 278.819 C 197.609 279.030,197.822 279.088,199.479 279.101 C 200.936 279.113,201.354 279.028,200.868 278.819 C 200.051 278.468,199.818 278.468,198.438 278.819 M192.882 279.514 C 192.628 279.925,192.968 279.925,193.924 279.514 C 194.593 279.226,194.591 279.215,193.857 279.191 C 193.439 279.178,193.000 279.323,192.882 279.514 M30.741 280.759 C 30.418 281.253,30.232 281.737,30.329 281.833 C 30.425 281.930,30.754 281.526,31.060 280.935 C 31.735 279.629,31.549 279.527,30.741 280.759 M368.912 282.899 C 369.214 283.520,369.536 284.028,369.627 284.028 C 369.972 284.028,369.750 283.475,369.069 282.639 L 368.361 281.771 368.912 282.899 M27.993 285.330 C 27.318 286.428,26.603 287.515,26.404 287.746 C 25.956 288.264,25.930 288.652,26.361 288.385 C 26.537 288.277,27.052 287.525,27.507 286.715 C 27.962 285.906,28.617 284.813,28.964 284.288 C 29.310 283.763,29.510 283.333,29.407 283.333 C 29.304 283.333,28.668 284.232,27.993 285.330 M181.937 286.372 L 178.993 289.410 182.031 286.466 C 184.853 283.732,185.228 283.333,184.975 283.333 C 184.923 283.333,183.556 284.701,181.937 286.372 M216.667 285.938 C 217.704 286.988,218.631 287.847,218.726 287.847 C 218.822 287.847,218.051 286.988,217.014 285.938 C 215.977 284.887,215.050 284.028,214.954 284.028 C 214.859 284.028,215.629 284.887,216.667 285.938 M371.007 286.458 C 371.303 287.031,371.703 287.500,371.894 287.500 C 372.086 287.500,371.896 287.031,371.473 286.458 C 371.049 285.885,370.650 285.417,370.586 285.417 C 370.521 285.417,370.711 285.885,371.007 286.458 M25.174 289.931 C 24.877 290.503,24.713 290.972,24.809 290.972 C 24.904 290.972,25.225 290.503,25.521 289.931 C 25.817 289.358,25.981 288.889,25.886 288.889 C 25.790 288.889,25.470 289.358,25.174 289.931 M372.882 289.410 C 373.467 290.542,373.948 291.170,373.945 290.799 C 373.944 290.608,373.623 290.061,373.233 289.583 C 372.761 289.007,372.643 288.948,372.882 289.410 M219.838 289.763 C 220.150 290.142,220.807 291.233,221.298 292.188 C 221.788 293.142,222.197 293.801,222.206 293.652 C 222.239 293.098,220.519 290.044,219.906 289.568 C 219.305 289.101,219.301 289.111,219.838 289.763 M178.240 290.733 C 176.764 292.948,175.312 296.458,176.064 295.993 C 176.243 295.883,176.389 295.562,176.389 295.280 C 176.389 294.643,178.018 291.358,178.741 290.536 C 179.037 290.201,179.211 289.859,179.128 289.776 C 179.045 289.693,178.646 290.124,178.240 290.733 M375.726 294.184 C 377.611 297.287,378.125 297.953,378.125 297.292 C 378.125 297.063,377.999 296.875,377.846 296.875 C 377.693 296.875,377.185 296.096,376.718 295.144 C 376.250 294.192,375.770 293.411,375.650 293.408 C 375.530 293.405,375.237 292.934,375.000 292.361 C 374.763 291.788,374.438 291.319,374.278 291.319 C 374.118 291.319,374.769 292.609,375.726 294.184 M23.102 293.259 C 22.779 293.753,22.593 294.237,22.690 294.333 C 22.786 294.430,23.115 294.026,23.421 293.435 C 24.096 292.129,23.910 292.027,23.102 293.259 M222.913 296.339 C 223.073 297.046,223.297 297.718,223.411 297.832 C 223.721 298.142,223.217 295.709,222.898 295.357 C 222.747 295.190,222.754 295.632,222.913 296.339 M21.019 296.732 C 20.695 297.226,20.490 297.689,20.563 297.762 C 20.636 297.836,20.970 297.431,21.305 296.864 C 22.054 295.597,21.830 295.494,21.019 296.732 M175.395 297.107 C 175.369 297.521,175.257 298.146,175.147 298.496 C 174.958 299.098,174.969 299.099,175.344 298.514 C 175.562 298.175,175.673 297.550,175.591 297.125 C 175.442 296.355,175.442 296.355,175.395 297.107 M378.634 298.872 C 378.937 299.492,379.259 300.000,379.349 300.000 C 379.694 300.000,379.472 299.447,378.791 298.611 L 378.083 297.743 378.634 298.872 M223.781 303.646 C 223.784 308.585,223.818 308.907,224.083 306.543 C 224.251 305.050,224.249 302.613,224.080 300.987 C 223.801 298.314,223.778 298.520,223.781 303.646 M18.271 301.302 C 17.596 302.400,16.881 303.487,16.682 303.718 C 16.234 304.236,16.208 304.624,16.639 304.357 C 16.814 304.249,17.330 303.498,17.785 302.688 C 18.240 301.878,18.895 300.786,19.242 300.260 C 19.588 299.735,19.787 299.306,19.685 299.306 C 19.582 299.306,18.946 300.204,18.271 301.302 M174.785 303.646 C 174.786 305.938,174.842 306.830,174.910 305.629 C 174.978 304.428,174.978 302.553,174.909 301.462 C 174.840 300.371,174.785 301.354,174.785 303.646 M380.717 302.344 C 381.020 302.964,381.342 303.472,381.433 303.472 C 381.778 303.472,381.555 302.919,380.874 302.083 L 380.167 301.215 380.717 302.344 M15.381 306.076 C 15.063 306.745,14.675 307.292,14.519 307.292 C 14.363 307.292,14.236 307.457,14.236 307.659 C 14.236 308.324,14.928 307.617,15.637 306.226 C 16.020 305.476,16.250 304.861,16.147 304.861 C 16.045 304.861,15.700 305.408,15.381 306.076 M382.723 305.556 C 383.001 306.033,383.934 307.595,384.797 309.028 C 385.660 310.460,386.633 312.154,386.959 312.793 C 387.285 313.431,387.625 313.880,387.715 313.790 C 387.805 313.700,387.403 312.819,386.821 311.832 C 386.240 310.846,385.764 309.903,385.764 309.736 C 385.764 309.569,385.641 309.381,385.491 309.317 C 385.340 309.253,384.805 308.498,384.302 307.639 C 383.798 306.780,383.123 305.764,382.802 305.382 C 382.242 304.716,382.239 304.723,382.723 305.556 M175.224 309.028 C 175.499 310.525,175.696 310.808,175.689 309.693 C 175.686 309.232,175.530 308.620,175.342 308.333 C 175.102 307.967,175.067 308.173,175.224 309.028 M13.301 309.375 C 13.084 309.948,12.968 310.417,13.042 310.417 C 13.116 310.417,13.419 309.948,13.715 309.375 C 14.012 308.802,14.128 308.333,13.974 308.333 C 13.820 308.333,13.517 308.802,13.301 309.375 M223.133 309.909 C 223.014 310.220,222.930 310.734,222.947 311.053 C 222.963 311.371,223.114 311.171,223.282 310.608 C 223.610 309.512,223.494 308.969,223.133 309.909 M9.531 316.354 C 9.038 317.328,8.692 318.183,8.763 318.254 C 8.834 318.325,9.312 317.528,9.824 316.483 C 10.337 315.438,10.683 314.583,10.592 314.583 C 10.502 314.583,10.025 315.380,9.531 316.354 M217.522 320.207 C 216.574 321.200,216.110 321.786,216.492 321.510 C 217.242 320.966,217.448 320.765,218.724 319.342 C 220.202 317.692,219.309 318.336,217.522 320.207 M390.458 319.687 C 390.978 320.932,391.319 321.495,391.319 321.107 C 391.319 320.733,390.264 318.403,390.095 318.403 C 389.999 318.403,390.163 318.981,390.458 319.687 M179.861 318.859 C 179.861 318.918,180.369 319.426,180.990 319.987 L 182.118 321.007 181.098 319.878 C 180.148 318.827,179.861 318.590,179.861 318.859 M7.114 321.763 C 6.821 322.466,6.626 323.177,6.681 323.343 C 6.737 323.509,7.046 322.934,7.367 322.066 C 8.067 320.178,7.874 319.947,7.114 321.763 M182.292 321.289 C 182.292 321.349,182.799 321.857,183.420 322.418 L 184.549 323.438 183.529 322.309 C 182.578 321.257,182.292 321.021,182.292 321.289 M392.238 324.653 C 392.513 326.150,392.710 326.433,392.703 325.318 C 392.700 324.857,392.544 324.245,392.356 323.958 C 392.116 323.592,392.081 323.798,392.238 324.653 M5.425 327.270 C 5.306 327.581,5.224 328.173,5.244 328.587 C 5.266 329.063,5.384 328.894,5.565 328.127 C 5.868 326.837,5.785 326.331,5.425 327.270 M393.631 332.017 C 393.745 333.600,393.940 335.009,394.063 335.147 C 394.187 335.286,394.186 334.192,394.062 332.717 C 393.937 331.242,393.897 329.928,393.972 329.798 C 394.047 329.668,393.954 329.466,393.765 329.350 C 393.544 329.213,393.496 330.157,393.631 332.017 M4.780 330.098 C 4.698 330.254,4.622 332.413,4.612 334.896 L 4.594 339.410 4.849 334.722 C 5.098 330.148,5.089 329.517,4.780 330.098 M393.818 337.906 C 393.781 339.179,393.660 340.507,393.550 340.857 C 393.364 341.449,393.377 341.451,393.740 340.888 C 393.965 340.538,394.078 339.293,394.008 337.936 L 393.886 335.590 393.818 337.906 M392.304 344.543 C 391.795 346.060,391.505 347.166,391.658 347.001 C 392.081 346.547,393.495 342.456,393.353 342.098 C 393.285 341.925,392.813 343.026,392.304 344.543 M5.604 343.056 C 5.604 343.342,5.739 343.889,5.903 344.271 C 6.091 344.709,6.201 344.773,6.201 344.444 C 6.201 344.158,6.067 343.611,5.903 343.229 C 5.715 342.791,5.604 342.727,5.604 343.056 M6.257 345.248 C 6.242 345.833,8.392 349.869,9.250 350.868 C 10.116 351.875,10.058 351.402,9.186 350.347 C 8.949 350.061,8.195 348.733,7.510 347.396 C 6.825 346.059,6.261 345.092,6.257 345.248 M390.640 348.575 C 390.406 349.140,389.916 349.872,389.552 350.202 C 389.187 350.532,388.889 350.946,388.889 351.122 C 388.889 351.526,390.379 349.750,390.949 348.668 C 391.184 348.222,391.306 347.787,391.221 347.702 C 391.135 347.617,390.874 348.010,390.640 348.575 M11.111 353.299 C 11.759 353.967,12.399 354.514,12.533 354.514 C 12.668 354.514,12.231 353.967,11.563 353.299 C 10.894 352.630,10.254 352.083,10.140 352.083 C 10.026 352.083,10.463 352.630,11.111 353.299 M385.417 354.926 C 384.175 356.094,383.472 356.881,383.854 356.675 C 384.523 356.316,388.162 352.764,387.834 352.791 C 387.746 352.798,386.658 353.759,385.417 354.926 M15.052 356.513 C 15.188 356.732,15.791 357.263,16.393 357.691 C 16.994 358.119,17.375 358.290,17.240 358.071 C 17.104 357.851,16.501 357.321,15.899 356.892 C 15.297 356.464,14.916 356.293,15.052 356.513 M28.646 362.847 C 28.764 363.038,29.281 363.183,29.795 363.170 C 30.629 363.148,30.655 363.114,30.035 362.847 C 29.070 362.433,28.390 362.433,28.646 362.847 M368.750 362.847 L 367.882 363.125 368.816 363.160 C 369.330 363.179,369.847 363.038,369.965 362.847 C 370.209 362.453,369.982 362.453,368.750 362.847 M32.465 363.542 C 32.847 363.706,33.394 363.840,33.681 363.840 C 34.009 363.840,33.945 363.730,33.507 363.542 C 33.125 363.378,32.578 363.243,32.292 363.243 C 31.963 363.243,32.028 363.354,32.465 363.542 M364.236 363.550 C 363.492 363.796,363.557 363.830,364.695 363.790 C 365.424 363.765,366.097 363.620,366.191 363.469 C 366.402 363.128,365.389 363.170,364.236 363.550 M40.451 364.249 C 43.204 364.591,355.169 364.592,357.639 364.251 C 358.689 364.105,287.283 363.988,198.958 363.989 C 110.634 363.990,39.306 364.107,40.451 364.249 " stroke="none" fill="#cc6a69" fill-rule="evenodd"></path></g></svg>